<?xml version="1.0" encoding="UTF-8"?>
<svg version="1.1" xmlns="http://www.w3.org/2000/svg" width="8000" height="8000">
<path d="M0 0 C163.453125 -0.061875 326.90625 -0.12375 495.3125 -0.1875 C546.96048096 -0.21481201 598.60846191 -0.24212402 651.8215332 -0.27026367 C714.79528809 -0.28381348 714.79528809 -0.28381348 744.25773621 -0.28633118 C765.55396243 -0.28922307 786.85016441 -0.30113123 808.14638191 -0.31837636 C831.24451251 -0.33702576 854.34262438 -0.34463066 877.44076426 -0.34033485 C890.76230673 -0.3381863 904.08378415 -0.34411145 917.40531455 -0.36242279 C926.21518672 -0.37370821 935.0250159 -0.37398487 943.83489108 -0.36550602 C948.84375401 -0.36099364 953.8524925 -0.36106427 958.86134183 -0.37464774 C1056.96551396 -0.62468584 1142.51624864 33.47207878 1212.5 102.375 C1236.55524577 126.9121245 1256.39140519 156.09769528 1271.08935547 187.10205078 C1272.0037634 189.00784362 1272.95304612 190.89268486 1273.91015625 192.77734375 C1285.83195472 216.6328476 1293.4805988 242.66627942 1298.6875 268.75 C1298.87803955 269.68730957 1299.0685791 270.62461914 1299.26489258 271.59033203 C1303.47852258 293.86316454 1304.44452279 316.11106927 1304.36679725 338.71318285 C1304.35632746 342.7544421 1304.36364845 346.79568005 1304.36854553 350.83694458 C1304.37472882 357.89934949 1304.36992355 364.96167787 1304.35764539 372.02407384 C1304.33921297 382.6616464 1304.3385466 393.29917346 1304.34104129 403.93675913 C1304.34475377 421.77014021 1304.33494463 439.60348796 1304.31672668 457.43685913 C1304.29213731 481.54995917 1304.28641316 505.66300238 1304.28381348 529.77612305 C1304.26807854 587.72575545 1304.22619502 645.67537837 1304.1875 703.625 C1304.125625 833.10875 1304.06375 962.5925 1304 1096 C873.68 1096 443.36 1096 0 1096 C0 734.32 0 372.64 0 0 Z M349 348 C348.90831069 387.56793449 348.83789349 427.13585505 348.79573868 466.70387467 C348.79073626 471.38233589 348.78555893 476.0607969 348.78027344 480.73925781 C348.7792242 481.67059865 348.77817495 482.60193948 348.77709392 483.56150277 C348.7597204 498.61314862 348.72819966 513.66473294 348.69138882 528.71634237 C348.65389421 544.17725512 348.63174619 559.63813579 348.62364602 575.09909213 C348.61817586 584.62826279 348.6009411 594.15725951 348.56833413 603.68637659 C348.54708088 610.23364338 348.54082423 616.78082113 348.54599449 623.32811986 C348.54853959 627.09746482 348.54482487 630.86650726 348.5231781 634.6357975 C348.35040751 666.3226161 353.48857343 693.82566148 376.2578125 717.25390625 C377.16273438 718.16011719 378.06765625 719.06632812 379 720 C379.80179688 720.81339844 380.60359375 721.62679687 381.4296875 722.46484375 C387.89227514 728.66257124 395.11364706 732.9134353 403 737 C404.3921875 737.72703125 404.3921875 737.72703125 405.8125 738.46875 C418.07618402 744.45459577 431.39623777 747.16679368 444.98236752 747.12304783 C446.31141435 747.1247786 446.31141435 747.1247786 447.66731063 747.12654433 C450.63922355 747.12919329 453.6110824 747.12470298 456.58299255 747.12025452 C458.73393026 747.12069057 460.88486791 747.12156611 463.03580528 747.12284368 C468.94881499 747.12508194 474.86180661 747.12107646 480.77481401 747.11606562 C487.15034699 747.11175174 493.52587893 747.11320821 499.90141296 747.1139679 C510.94827457 747.11449253 521.99513018 747.11138688 533.04199028 747.10573006 C544.62758856 747.09981257 556.21318448 747.09596402 567.79878426 747.09487724 C568.5192034 747.0948085 569.23962255 747.09473976 569.98187258 747.09466894 C573.64053323 747.09433061 577.29919387 747.09402922 580.95785452 747.09374207 C606.87058625 747.09164178 632.78331492 747.08490478 658.69604492 747.07543945 C683.86954736 747.06625476 709.04304896 747.05917127 734.21655273 747.05493164 C734.99254113 747.05480011 735.76852952 747.05466859 736.56803271 747.05453308 C744.36084332 747.05321455 752.15365394 747.05193874 759.94646457 747.05069422 C775.82124844 747.04815802 791.69603225 747.04533677 807.57081604 747.04234314 C808.30070925 747.04220585 809.03060246 747.04206856 809.78261365 747.04192711 C858.52174374 747.0327268 907.26087202 747.01686084 956 747 C956.04581894 708.00093113 956.08104026 669.00186579 956.10213066 630.00277536 C956.10463195 625.39426556 956.10722061 620.78575582 956.10986328 616.17724609 C956.1103879 615.25980909 956.11091252 614.34237209 956.11145304 613.39713396 C956.12014587 598.55943887 956.13590965 583.72175935 956.15430559 568.88407348 C956.17303588 553.64917966 956.18412334 538.41429398 956.18817699 523.17938912 C956.19091556 513.78538515 956.19955227 504.39142517 956.21583293 494.99743475 C956.22643847 488.54785952 956.22959257 482.0983069 956.22700275 475.64872359 C956.225727 471.93262009 956.22762552 468.21659326 956.23841095 464.50050354 C956.25005401 460.45909784 956.24594827 456.41785314 956.24050903 452.37643433 C956.24633472 451.21880203 956.2521604 450.06116974 956.25816262 448.86845767 C956.21781698 437.71582015 955.0716334 426.63339936 951.375 416.0625 C950.9869519 414.93509399 950.9869519 414.93509399 950.59106445 413.78491211 C941.41635198 388.16215755 922.71059925 368.48635655 898.21875 356.859375 C880.25229606 348.70639082 862.18805376 347.70014648 842.76504517 347.75949097 C840.62868968 347.75861763 838.49233441 347.75686429 836.35598028 347.75431263 C830.51577292 347.74986034 824.67563953 347.75781357 818.83544159 347.76786876 C812.52615368 347.77653159 806.2168697 347.77358109 799.90757751 347.77206421 C788.98633331 347.77101715 778.06511654 347.77720489 767.14387894 347.78853989 C755.69524649 347.80039168 744.24662361 347.80807536 732.79798508 347.81024551 C731.72847572 347.81045173 731.72847572 347.81045173 730.63736012 347.81066212 C727.01606242 347.81133883 723.39476471 347.81194158 719.77346699 347.81251587 C694.15300796 347.8167118 668.53256139 347.83017285 642.91210938 347.84912109 C618.02897203 347.86750274 593.14583809 347.8816637 568.26269531 347.89013672 C567.49509788 347.89039977 566.72750046 347.89066282 565.9366425 347.89093385 C558.22780624 347.89357099 550.51896996 347.8961226 542.81013365 347.89861157 C527.10766501 347.9036834 511.40519659 347.9093259 495.70272827 347.91531372 C494.98082354 347.9155883 494.2589188 347.91586288 493.51513816 347.91614578 C445.34342014 347.93453352 397.17170946 347.96626404 349 348 Z " fill="#000000" transform="translate(1858,2488)"/>
<path d="M0 0 C0 247.17 0 494.34 0 749 C44.6447137 751.4609812 44.6447137 751.4609812 89.25 740.4375 C89.90274902 740.10306885 90.55549805 739.7686377 91.22802734 739.42407227 C98.15084649 735.68189358 103.5888655 730.64936055 109 725 C109.61359375 724.3709375 110.2271875 723.741875 110.859375 723.09375 C125.71380976 706.86106871 128.32415182 686.0663229 128.25828552 664.94502258 C128.26114786 663.47962687 128.26489 662.01423267 128.26942402 660.54884118 C128.27931245 656.56220934 128.27705642 652.57566645 128.27269709 648.58902824 C128.27020336 644.27309718 128.2793119 639.95718848 128.28707886 635.64126587 C128.29908537 628.17087216 128.30422981 620.70049972 128.30496025 613.23009682 C128.30629177 602.39996095 128.32145612 591.56987624 128.34045542 580.73975851 C128.37125721 563.12656085 128.39543758 545.51336189 128.41333008 527.90014648 C128.41440276 526.84749641 128.41547544 525.79484634 128.41658062 524.71029779 C128.42838447 512.98338001 128.43859224 501.2564617 128.44702148 489.52954102 C128.45009525 485.28458657 128.4531841 481.03963215 128.45629883 476.79467773 C128.45706417 475.74726433 128.45782951 474.69985092 128.45861804 473.62069771 C128.47175082 456.08570025 128.49646235 438.55073972 128.53004223 421.01576966 C128.55020856 410.2297341 128.56063884 399.44377788 128.55805302 388.65772333 C128.55700902 381.24803319 128.5667963 373.83840533 128.58469205 366.42873696 C128.59462406 362.17016582 128.59998966 357.91173265 128.59192467 353.65315437 C128.46950486 281.87351446 147.38570609 212.71098153 188 153 C188.41072754 152.39494629 188.82145508 151.78989258 189.24462891 151.16650391 C198.49239372 137.65053994 208.91943864 125.04676987 220 113 C221.47964441 111.33375745 222.95880256 109.66708298 224.4375 108 C231.50241955 100.15966245 238.95528906 92.82667372 247 86 C247.8971875 85.21367187 248.794375 84.42734375 249.71875 83.6171875 C304.56938206 35.8575455 374.64120176 7.47277213 446.8125 0.75 C448.06196411 0.62963379 448.06196411 0.62963379 449.33666992 0.50683594 C458.93060574 -0.28067812 468.28950017 0 478 0 C478 247.17 478 494.34 478 749 C533.7099684 751.94229342 533.7099684 751.94229342 582 730 C582.66257812 729.43023438 583.32515625 728.86046875 584.0078125 728.2734375 C596.83123459 716.455774 603.83585074 700.09840951 606 683 C606.08611489 680.88793779 606.12823357 678.77370338 606.13028526 676.65988731 C606.13390961 675.42374542 606.13753396 674.18760352 606.14126813 672.91400278 C606.14027168 671.55541056 606.13918958 670.19681841 606.13803101 668.83822632 C606.14045117 667.38442331 606.1433141 665.93062099 606.14658034 664.47681963 C606.15431363 660.48965909 606.15595171 656.50251579 606.15663147 652.51534867 C606.15847506 648.21084971 606.16608477 643.90636075 606.17311096 639.60186768 C606.18463019 632.14009095 606.19287853 624.67831647 606.19923019 617.21653366 C606.20958139 605.39585647 606.23015509 593.57520716 606.25234985 581.75454712 C606.25982986 577.70406923 606.26724369 573.65359122 606.27463722 569.60311317 C606.27648779 568.5907353 606.27833835 567.57835743 606.280245 566.53530144 C606.30117001 555.01198103 606.31999505 543.48865752 606.33789062 531.96533203 C606.33952881 530.91223869 606.34116699 529.85914534 606.34285481 528.77414007 C606.36906147 511.76135038 606.38774763 494.74855853 606.40448253 477.73575728 C606.42197843 460.23034838 606.45090791 442.72498139 606.4893719 425.21960604 C606.51262387 414.44709837 606.52675302 403.67465911 606.52869953 392.90212615 C606.53082892 385.49421871 606.54392264 378.08637887 606.56517886 370.67850189 C606.57706073 366.42176099 606.58446008 362.16515409 606.57846642 357.90839767 C606.51111741 302.72545861 615.71170955 249.03948092 640 199 C640.57935303 197.78207764 640.57935303 197.78207764 641.17041016 196.53955078 C657.41271666 162.43935018 679.5377037 132.57570408 705.25 105.0625 C705.89928467 104.36471436 706.54856934 103.66692871 707.2175293 102.94799805 C711.02519426 98.91313967 714.97502536 95.17148028 719.18701172 91.5612793 C721.50253659 89.56723385 723.71315083 87.46981136 725.9375 85.375 C733.23028061 78.73605489 741.07865203 72.86289205 749 67 C750.00909424 66.24565674 750.00909424 66.24565674 751.03857422 65.47607422 C810.00254583 21.59691931 882.98880845 0 956 0 C956 362.34 956 724.68 956 1098 C795.57875 1098.061875 635.1575 1098.12375 469.875 1098.1875 C393.85358643 1098.22846802 393.85358643 1098.22846802 316.29638672 1098.27026367 C254.47875977 1098.28381348 254.47875977 1098.28381348 225.55276489 1098.28633118 C203.98884343 1098.2893139 182.42494882 1098.30224539 160.86103541 1098.32002028 C138.85545568 1098.33791343 116.84989373 1098.34450203 94.84430701 1098.34033485 C81.77256133 1098.33818812 68.70088199 1098.34409359 55.62914863 1098.36242279 C46.98000615 1098.37372379 38.33090741 1098.37397404 29.68176184 1098.36550602 C24.76714481 1098.3610017 19.85265453 1098.36103031 14.93805146 1098.37464774 C-78.33199587 1098.61748388 -167.17482552 1071.17919548 -236.28125 1006.53125 C-238.76927988 1004.21480839 -241.31082129 1001.98116849 -243.875 999.75 C-298.58775165 950.56999852 -333.94251839 876.70116048 -345.25 804.8125 C-345.40114258 803.85351807 -345.55228516 802.89453613 -345.70800781 801.90649414 C-346.1916119 798.60941681 -346.59762206 795.30804777 -347 792 C-347.08325889 791.35965218 -347.16651778 790.71930437 -347.25229967 790.05955207 C-349.7393533 770.33577346 -349.29349732 750.45685771 -349.27610838 730.61752832 C-349.27361812 725.28461282 -349.2826837 719.95171408 -349.29014587 714.61880493 C-349.30283275 704.19727712 -349.30469402 693.77577514 -349.30234561 683.3542409 C-349.3005551 674.87200098 -349.30232772 666.38976883 -349.30657005 657.90752983 C-349.30716524 656.69552671 -349.30776043 655.48352359 -349.30837366 654.23479311 C-349.30958555 651.77172753 -349.31079968 649.30866195 -349.31201603 646.84559637 C-349.32286896 623.79488566 -349.32074007 600.74418962 -349.31463119 577.6934781 C-349.30946714 556.67049039 -349.32070798 535.64754909 -349.33972941 514.62457056 C-349.35916867 492.9715524 -349.36735298 471.31855612 -349.36360615 449.66552919 C-349.36170292 437.53586991 -349.36409512 425.40625008 -349.37832069 413.27659798 C-349.39031358 402.94716922 -349.39155192 392.61780419 -349.37953053 382.28837443 C-349.37369605 377.03282317 -349.37238889 371.77738797 -349.38453293 366.52184486 C-349.44551703 338.20177437 -349.06337323 309.97516017 -343.25 282.125 C-342.99468506 280.85873779 -342.73937012 279.59247559 -342.47631836 278.2878418 C-331.82485231 226.98644369 -310.03621118 178.52645827 -278 137 C-277.32839844 136.12730469 -276.65679688 135.25460938 -275.96484375 134.35546875 C-274.01167107 131.87289403 -272.01292601 129.4343236 -270 127 C-269.25878906 126.07316406 -268.51757812 125.14632812 -267.75390625 124.19140625 C-260.67917206 115.51809365 -252.82700302 107.6106511 -244.9375 99.6875 C-244.3831427 99.12796631 -243.8287854 98.56843262 -243.25762939 97.99194336 C-236.16368416 90.8458926 -228.91703223 84.23709448 -221 78 C-219.90004054 77.0952408 -218.80197131 76.18817101 -217.70703125 75.27734375 C-156.12319198 25.49499594 -78.75435344 0 0 0 Z " fill="#000000" transform="translate(2207,3751)"/>
<path d="M0 0 C4.98916972 0.00695864 9.97833151 0.00210989 14.96750311 -0.00115498 C23.68700438 -0.00527604 32.40647818 -0.00206046 41.12597624 0.00612144 C54.09129625 0.01825333 67.05659915 0.01878733 80.0219238 0.01703746 C101.83773153 0.01441699 123.65352724 0.02104987 145.46933142 0.03307227 C167.05643681 0.04494007 188.64353718 0.05262702 210.23064581 0.0547779 C210.90246659 0.05484672 211.57428738 0.05491555 212.26646637 0.05498646 C218.40302594 0.05561291 224.53958553 0.05618828 230.67614512 0.05670241 C245.92707539 0.05798077 261.17800554 0.05989914 276.42893568 0.0622528 C277.47037285 0.06241275 277.47037285 0.06241275 278.53284916 0.06257594 C312.25939855 0.0678118 345.98594463 0.08042396 379.71249167 0.09365348 C391.40802794 0.09823704 403.10356422 0.10278787 414.79910055 0.10720328 C415.88722237 0.10761413 415.88722237 0.10761413 416.99732644 0.10803328 C450.75608698 0.12073486 484.51484808 0.12817694 518.27361039 0.13427287 C520.46679297 0.134669 522.65997556 0.13506739 524.85315815 0.13546623 C539.38818934 0.13810593 553.92322056 0.1406552 568.45825178 0.14314395 C597.37631929 0.14809622 626.29438669 0.15357955 655.21245403 0.15942805 C656.58943042 0.15970653 657.96640681 0.15998464 659.3433832 0.16026237 C747.39606205 0.17802699 835.44873717 0.20817943 933.89510885 0.24453239 C933.9465213 46.49730174 933.99427558 92.75007362 934.02213827 139.00286368 C934.02275953 140.03152195 934.02275953 140.03152195 934.02339334 141.08096118 C934.03237439 155.98862843 934.0406846 170.89629599 934.04830484 185.80396399 C934.05204649 193.11585925 934.0559362 200.42775443 934.05990378 207.73964957 C934.06029605 208.46722791 934.06068833 209.19480626 934.06109249 209.94443243 C934.07385114 233.4800946 934.09636597 257.015735 934.12400052 280.55138402 C934.15237305 304.75981981 934.17078246 328.96824359 934.17685382 353.17669573 C934.17771815 356.60470476 934.17869505 360.03271375 934.17974058 363.46072272 C934.17994285 364.13533031 934.18014512 364.8099379 934.18035352 365.50498814 C934.18366541 375.64825609 934.19559519 385.79149055 934.21229902 395.93474464 C934.23127509 407.50001569 934.2399985 419.06523771 934.23561299 430.63052448 C934.23370246 436.52326367 934.2365109 442.41589403 934.25272528 448.30861358 C934.37351687 494.54052579 934.37351687 494.54052579 930.89510885 515.24453239 C930.72267735 516.27155824 930.55024585 517.29858409 930.37258915 518.35673193 C923.07511719 561.08866652 904.63867627 601.25074176 877.89510885 635.24453239 C877.1474526 636.20617301 876.39979635 637.16781364 875.62948385 638.15859489 C866.0855042 650.14159156 855.46334901 661.2108547 843.89510885 671.24453239 C847.76190105 675.214243 851.82169081 678.87949606 856.02010885 682.49453239 C856.68317038 683.06735953 857.3462319 683.64018668 858.0293862 684.23037223 C862.67636673 688.23097247 867.3882051 692.14250056 872.15292135 696.00234489 C875.26510927 698.54706834 878.33240759 701.1406762 881.39510885 703.74453239 C885.34157009 707.09905334 889.3115312 710.416752 893.33260885 713.68203239 C897.57903831 717.13727848 901.74795373 720.67164188 905.89510885 724.24453239 C910.10923097 727.87321683 914.34283762 731.4700729 918.64510885 734.99453239 C919.51264792 735.72671989 920.38018698 736.45890739 921.2740151 737.21328239 C923.8468726 739.31655578 923.8468726 739.31655578 926.7974526 740.83828239 C929.98049664 742.73114448 931.81240236 744.16441159 933.89510885 747.24453239 C935.58998889 754.04676742 934.47942491 761.35537399 933.89510885 768.24453239 C933.77546774 769.97824088 933.77546774 769.97824088 933.65340964 771.74697379 C928.60497747 844.6440087 901.31303686 915.3766968 853.89510885 971.24453239 C853.08815573 972.23582145 852.2812026 973.22711051 851.44979635 974.24843864 C844.99698691 982.09124748 837.99169149 989.36137678 830.83260885 996.55703239 C829.92293356 997.47589225 829.01325827 998.39475211 828.07601706 999.34145621 C821.98805758 1005.40205407 815.60354741 1010.88660397 808.89510885 1016.24453239 C807.85585491 1017.11967026 806.82073684 1017.99979723 805.79354635 1018.88906364 C756.7928367 1060.98719655 693.41828809 1085.65306267 629.89510885 1094.24453239 C629.02579733 1094.36312614 628.15648581 1094.48171989 627.26083151 1094.60390739 C613.01742291 1096.47153091 599.40197339 1096.24453239 584.89510885 1096.24453239 C584.89510885 1019.35453239 584.89510885 942.46453239 584.89510885 863.24453239 C575.98510885 862.91453239 567.07510885 862.58453239 557.89510885 862.24453239 C485.1551582 855.28377156 415.17383109 828.85844414 359.89510885 780.24453239 C359.16163229 779.61031364 358.42815573 778.97609489 357.6724526 778.32265739 C355.73470814 776.64302203 353.81344384 774.94628117 351.89510885 773.24453239 C351.15260885 772.59484489 350.41010885 771.94515739 349.64510885 771.27578239 C344.68510215 766.88808415 339.90014698 762.35225407 335.20760885 757.68203239 C334.68529684 757.16431266 334.16298483 756.64659293 333.62484518 756.11318473 C329.51767638 751.98988408 325.68231892 747.66179504 321.89510885 743.24453239 C321.3539443 742.61538932 320.81277975 741.98624625 320.25521628 741.33803825 C266.31595638 678.16277136 236.89510885 597.22064921 236.89510885 514.24453239 C351.73510885 514.24453239 466.57510885 514.24453239 584.89510885 514.24453239 C588.67219235 441.82019726 588.67219235 441.82019726 558.6177651 381.24062614 C556.89510885 379.24453239 556.89510885 379.24453239 556.89510885 377.24453239 C556.30342917 376.97769645 555.71174948 376.71086051 555.1021401 376.43593864 C552.85706511 375.2239955 551.40455033 373.9537134 549.58260885 372.18203239 C530.2554616 355.03410136 505.82538684 349.75673361 480.71590964 349.86358146 C478.92348795 349.86011747 477.1310684 349.85534797 475.33865324 349.84939972 C470.45316068 349.83696181 465.56784561 349.84302702 460.6823527 349.85235838 C455.39801469 349.85917829 450.11370606 349.84865312 444.82937399 349.84041862 C434.49312128 349.82711036 424.15693409 349.82994604 413.82067887 349.83865654 C405.41679282 349.84544414 397.01292508 349.84634515 388.60903708 349.84308509 C387.41089349 349.84262539 386.21274991 349.84216569 384.97829894 349.84169206 C382.54394991 349.84073284 380.10960089 349.8397602 377.67525188 349.83877429 C354.87255494 349.83022891 332.06989424 349.84004115 309.26720325 349.85617539 C289.7206276 349.86957778 270.17410541 349.86724945 250.62753073 349.8534191 C227.90390614 349.83734823 205.18031327 349.83105281 182.45668379 349.8402559 C180.03151608 349.8412115 177.60634836 349.84215461 175.18118063 349.84308509 C173.98809227 349.84354792 172.79500391 349.84401074 171.56576136 349.84448759 C163.17637023 349.84707296 154.7869993 349.84271627 146.3976113 349.83564643 C136.16746263 349.82721449 125.93738298 349.82954716 115.70724217 349.84548866 C110.49220483 349.85334856 105.27728237 349.856502 100.062246 349.84654121 C95.28048669 349.83754641 90.49894785 349.84260535 85.7172083 349.85847386 C83.9953307 349.86180152 82.27343413 349.86017352 80.5515689 349.8528465 C52.91863241 349.74435885 27.70090419 358.31141364 7.52499167 377.60732535 C-12.66779939 397.89085693 -21.23935248 424.50687267 -21.37524059 452.71351431 C-21.37125949 453.93862622 -21.3672784 455.16373813 -21.36317667 456.42597465 C-21.36604085 457.78427606 -21.36978397 459.14257584 -21.37431517 460.50087271 C-21.38417936 464.18687602 -21.38195422 467.87278286 -21.37758824 471.55879299 C-21.37508981 475.55297829 -21.38420899 479.54713964 -21.39197 483.54131583 C-21.40396569 490.45238369 -21.40912038 497.36342858 -21.4098514 504.27450637 C-21.41118435 514.29700324 -21.42636119 524.319445 -21.44534657 534.3419223 C-21.47613566 550.64677311 -21.50032149 566.95162533 -21.51822122 583.25649528 C-21.5192939 584.23056155 -21.52036658 585.20462783 -21.52147177 586.20821126 C-21.53327383 597.05788217 -21.54348207 607.90755365 -21.55191263 618.7572277 C-21.55498641 622.68406691 -21.55807526 626.6109061 -21.56118997 630.53774528 C-21.56195531 631.50666867 -21.56272065 632.47559207 -21.56350918 633.47387678 C-21.57665073 649.70600811 -21.60137396 665.93809962 -21.63493338 682.1702014 C-21.65507749 692.14941084 -21.66553313 702.12853469 -21.66294417 712.10776462 C-21.66189863 718.96567084 -21.67171127 725.82350993 -21.6895832 732.68139267 C-21.69949601 736.62010599 -21.70490264 740.55867057 -21.69681581 744.4973915 C-21.59057658 801.96683419 -33.5099253 857.25809461 -60.13858255 908.38564567 C-61.09062497 910.21708856 -62.02602916 912.05634824 -62.9603599 913.89687614 C-74.52919858 936.42011896 -89.30149992 957.32979177 -106.10489115 976.24453239 C-106.73459818 976.96036491 -107.36430521 977.67619742 -108.01309427 978.41372184 C-113.62369697 984.73195109 -119.46025195 990.78614076 -125.43350443 996.7584484 C-126.97662645 998.30376305 -128.5115342 999.85693685 -130.0462974 1001.41054801 C-136.40435292 1007.80505103 -142.9977261 1013.67555699 -150.10489115 1019.24453239 C-150.81903177 1019.81260612 -151.5331724 1020.38067985 -152.26895365 1020.96596793 C-205.0016193 1062.68901271 -267.35505505 1087.65141711 -334.10489115 1095.24453239 C-335.15289896 1095.37601676 -336.20090677 1095.50750114 -337.2806724 1095.64296989 C-342.16726576 1096.1662809 -347.04141754 1096.28330756 -351.95303568 1096.27504996 C-353.01610941 1096.27404288 -354.07918314 1096.2730358 -355.17447122 1096.27199821 C-356.26783792 1096.2693798 -357.36120462 1096.26676139 -358.48770365 1096.26406364 C-359.60475687 1096.26265372 -360.72181009 1096.26124381 -361.87271341 1096.25979117 C-364.61677809 1096.2561246 -367.36083186 1096.25099419 -370.10489115 1096.24453239 C-370.15633964 1023.13497942 -370.20403395 950.02542427 -370.23192056 876.91585807 C-370.23233474 875.83281602 -370.23274891 874.74977398 -370.23317563 873.63391247 C-370.24215556 850.09321894 -370.25046593 826.55252522 -370.25808713 803.01183122 C-370.26182895 791.46651412 -370.26571864 779.92119707 -370.26968607 768.37588004 C-370.27007834 767.22701758 -370.27047062 766.07815512 -370.27087479 764.89447864 C-370.28364563 727.69529007 -370.30616969 690.49611521 -370.33378281 653.29693495 C-370.36212083 615.05149711 -370.3805568 576.80606686 -370.38663612 538.56061871 C-370.38750051 533.15155327 -370.38847742 527.74248786 -370.38952287 522.33342246 C-370.38972514 521.26890129 -370.38992741 520.20438011 -370.39013581 519.10760072 C-370.39367299 502.01162855 -370.40756558 484.91567993 -370.42538725 467.81971735 C-370.44310616 450.60836073 -370.44978082 433.39702732 -370.44539528 416.18566192 C-370.44312358 405.9757486 -370.44910639 395.76592059 -370.46728377 385.55602277 C-370.47862522 378.71464805 -370.47881844 371.87332849 -370.47038659 365.0319498 C-370.46590511 361.14738439 -370.46585048 357.26297901 -370.47954069 353.37843151 C-370.73870449 275.11433696 -347.52749893 197.81044611 -298.52237161 136.03213004 C-297.29109923 134.47936112 -296.07368561 132.9156223 -294.8587974 131.35000114 C-290.63093023 125.94819902 -286.11277517 120.86558536 -281.46426615 115.82265739 C-279.52618887 113.70489083 -277.64947616 111.55758304 -275.79239115 109.36953239 C-272.56413376 105.65933136 -269.13532648 102.16632357 -265.66739115 98.68203239 C-265.14169534 98.1517443 -264.61599954 97.62145621 -264.07437357 97.07509879 C-249.84545794 82.90078377 -233.76193127 70.41401979 -217.10489115 59.24453239 C-216.39203958 58.76306754 -215.67918802 58.2816027 -214.9447349 57.78554801 C-200.9620281 48.41788487 -186.16779522 40.71729169 -171.10489115 33.24453239 C-170.2541099 32.81543571 -169.40332865 32.38633903 -168.52676615 31.94423942 C-139.82993326 17.58980434 -107.62930084 9.09807484 -76.10489115 3.99453239 C-75.18240579 3.84306754 -74.25992044 3.6916027 -73.30948099 3.53554801 C-48.98925665 -0.09421365 -24.51949646 -0.0453512 0 0 Z " fill="#000000" transform="translate(3718.104891145602,3751.755467614159)"/>
<path d="M0 0 C5.03575428 0.01045137 10.07149114 0.00316238 15.10724964 -0.00173247 C23.90544946 -0.00791003 32.703588 -0.00309776 41.50178065 0.00918215 C54.58407837 0.02739039 67.66633798 0.02818005 80.74864607 0.02555619 C102.76196471 0.02162673 124.77525929 0.03157 146.78856959 0.04960841 C168.56939875 0.06741344 190.35021672 0.07894119 212.13105311 0.08216685 C212.80904033 0.08227009 213.48702755 0.08237332 214.18555984 0.08247968 C220.37849486 0.08341937 226.5714299 0.08428243 232.76436494 0.08505361 C248.15502586 0.08697109 263.54568652 0.08984861 278.93634715 0.0933792 C279.63698005 0.09353915 280.33761296 0.0936991 281.05947717 0.0938639 C315.08952237 0.10171666 349.1195602 0.12063447 383.14960017 0.14048022 C394.94956756 0.14735559 406.74953497 0.15418186 418.54950251 0.16080493 C419.28139988 0.16121577 420.01329724 0.16162662 420.76737332 0.16204992 C454.83134331 0.18110423 488.89531458 0.19226604 522.95928851 0.20140931 C525.1724494 0.2020035 527.38561029 0.20260108 529.59877118 0.20319935 C544.26627373 0.20715891 558.9337763 0.21098282 573.6012789 0.21471593 C602.78260818 0.22214422 631.96393721 0.23036922 661.14526612 0.23914207 C662.53476082 0.23955979 663.92425552 0.23997695 665.31375023 0.24039356 C752.57894373 0.26656424 839.84412897 0.31072197 942.3361236 0.36679858 C942.34920534 3.5408669 942.35701956 6.71492815 942.36395564 9.88901538 C942.36768687 10.77886881 942.3714181 11.66872225 942.3752624 12.58554095 C942.38766709 20.17231783 941.97361475 27.6269567 941.2111236 35.17929858 C941.08060603 36.48334643 940.95008845 37.78739428 940.81561579 39.13095874 C933.48219146 108.61045332 904.25113541 178.30133304 856.6017486 229.89023608 C854.75379842 231.9102368 852.96437893 233.95951339 851.1798736 236.03476733 C840.63752536 248.10972847 829.05030639 259.59675546 816.3361236 269.36679858 C815.28335248 270.23914301 814.23410341 271.11574876 813.1876861 271.99570483 C783.80253427 296.50203213 749.2262439 315.3677711 713.3361236 328.36679858 C712.45601618 328.68632495 711.57590876 329.00585131 710.66913142 329.3350603 C692.0687079 336.00096704 673.09777428 340.68444451 653.6486236 344.11679858 C652.5348736 344.31547534 651.4211236 344.51415209 650.2736236 344.71884936 C632.05188293 347.78470452 613.89987491 348.66338552 595.44919123 348.63181323 C593.21848855 348.63539327 590.98778713 348.63984779 588.75708773 348.6450898 C582.68802985 348.65690246 576.61902639 348.65658551 570.5499598 348.65415472 C564.65800394 348.65377593 558.76606719 348.66280503 552.87411901 348.67162354 C540.83396976 348.68936438 528.79382987 348.69827944 516.75366892 348.70232409 C500.30775646 348.70796976 483.86187669 348.72667218 467.41597903 348.74876463 C459.73745928 348.75906231 452.05893874 348.76872813 444.38041796 348.77822894 C443.61200055 348.77918045 442.84358314 348.78013196 442.05188035 348.7811123 C423.79799927 348.80356891 405.54411352 348.81983969 387.29022517 348.8350603 C386.49240695 348.83572785 385.69458874 348.8363954 384.87259422 348.83708318 C371.92440419 348.84790867 358.97621387 348.85835727 346.0280235 348.86875182 C333.88528068 348.87850286 321.74253798 348.88838837 309.59979548 348.89853686 C308.80150734 348.89920174 308.00321921 348.89986661 307.18074052 348.90055164 C288.94417998 348.91577419 270.70762347 348.93278173 252.47107043 348.95536822 C251.70405071 348.95631748 250.93703098 348.95726674 250.14676824 348.95824476 C242.48823106 348.96776361 234.82969434 348.97759402 227.17115815 348.98788872 C210.74457368 349.00990106 194.31800937 349.02650354 177.89141055 349.03201426 C165.9220451 349.03611281 153.95270251 349.04703159 141.98334965 349.06499201 C135.5045322 349.07438492 129.02575417 349.08051566 122.5469295 349.07792872 C116.61079264 349.07560926 110.67473847 349.08248326 104.73861838 349.09650755 C102.59700422 349.09995533 100.45538142 349.10007462 98.31376759 349.09643495 C65.84941953 349.04666898 38.66725812 355.97066396 14.5861236 378.67929858 C-7.8225197 402.11210291 -12.99191011 431.13817123 -12.92266546 462.3843767 C-12.9253813 464.46074818 -12.92894555 466.5371187 -12.93328558 468.61348742 C-12.94234125 474.21055964 -12.93889367 479.80755746 -12.9325274 485.40463084 C-12.92743187 491.28724497 -12.93216867 497.16985312 -12.93529974 503.05246752 C-12.93892907 512.92760112 -12.93416744 522.80270471 -12.92461858 532.67783374 C-12.91373605 544.06304296 -12.91726236 555.44818054 -12.92827139 566.83338803 C-12.93737375 576.64276713 -12.93861517 586.45212477 -12.93339406 596.26150674 C-12.93029053 602.10521478 -12.92982024 607.94888925 -12.93646703 613.79259509 C-12.9422829 619.28878939 -12.93816665 624.78489211 -12.92667852 630.28107661 C-12.92405448 632.28725869 -12.92475796 634.29344861 -12.92920385 636.29962748 C-12.98681288 664.95733742 -8.23947625 691.26794053 11.3361236 713.36679858 C11.86335017 714.03582202 12.39057673 714.70484545 12.93377985 715.39414233 C27.22699419 733.12896601 51.18840064 743.43870429 73.3361236 746.36679858 C78.31113211 746.64325998 83.28011679 746.64244079 88.26114478 746.62851161 C89.75598421 746.63170412 91.25082199 746.63576911 92.74565696 746.64062089 C96.84487063 746.65141148 100.94399988 746.64986584 105.04322273 746.64627017 C109.50594578 746.64456013 113.96864584 746.65443166 118.43135925 746.66282421 C126.24978214 746.67593737 134.06818341 746.68168145 141.88661684 746.68258494 C153.51230902 746.68396185 165.13796911 746.6967507 176.76365054 746.71187268 C196.32056738 746.73698817 215.87748152 746.75285638 235.43441119 746.76345462 C254.79825913 746.77397843 274.16209678 746.78861216 293.52593722 746.80873507 C295.33190604 746.81060837 295.33190604 746.81060837 297.17435908 746.81251952 C303.28875963 746.81888327 309.4031601 746.82532045 315.51756054 746.8317859 C358.82597268 746.87744872 402.13438816 746.91389632 445.44281306 746.94492358 C487.51638574 746.97508725 529.58995164 747.00942566 571.66351618 747.04941577 C572.96040398 747.05064677 574.25729178 747.05187777 575.59347921 747.05314608 C588.617358 747.06551293 601.64123671 747.07796466 614.66511536 747.09047856 C641.19626417 747.1159689 667.72741351 747.14089278 694.25856318 747.16547412 C695.47842286 747.16660502 696.69828255 747.16773593 697.95510768 747.16890111 C779.41543842 747.24435652 860.87578033 747.30660701 942.3361236 747.36679858 C942.35022503 750.70712626 942.35866497 754.04744614 942.3661529 757.38779467 C942.3701787 758.32517977 942.37420451 759.26256488 942.3783523 760.22835559 C942.39119529 767.88215141 941.96996678 775.37784063 941.1486236 782.99179858 C940.94898005 784.88720385 940.94898005 784.88720385 940.74530329 786.82090014 C934.01797812 847.12602758 911.76437619 905.71630085 875.3361236 954.36679858 C874.93860896 954.90175952 874.54109431 955.43672045 874.13153376 955.98789233 C856.05685997 980.25232362 835.15888759 1002.7797286 811.01825251 1021.08310717 C809.36466792 1022.34501541 807.7292765 1023.62720514 806.09784235 1024.91757983 C798.13625582 1031.18994018 789.88096966 1036.91762054 781.3361236 1042.36679858 C780.46745661 1042.92101489 780.46745661 1042.92101489 779.58124079 1043.48642749 C723.12290564 1079.1451661 657.76568736 1096.60904724 591.21850886 1096.48984641 C589.5455955 1096.49058796 587.87268229 1096.49176857 586.19976952 1096.49334291 C581.62944947 1096.49638784 577.05915195 1096.49325705 572.4888336 1096.48906477 C567.50672332 1096.48561084 562.52461518 1096.48800511 557.54250445 1096.48964226 C548.81989588 1096.49171053 540.09729415 1096.49008158 531.37468638 1096.48600405 C518.40457736 1096.47995785 505.43447264 1096.47966929 492.46436248 1096.48054604 C470.64437287 1096.48185867 448.82438625 1096.47853067 427.00439753 1096.47252864 C405.40344523 1096.46660108 383.80249419 1096.46275253 362.20154108 1096.46167582 C361.19433294 1096.4616242 361.19433294 1096.4616242 360.16677716 1096.46157154 C354.03368516 1096.46125833 347.90059315 1096.46097064 341.76750114 1096.46071357 C326.52305146 1096.46007427 311.27860181 1096.45911501 296.03415217 1096.45793837 C294.99298992 1096.4578584 294.99298992 1096.4578584 293.93079408 1096.4577768 C260.18732273 1096.45515689 226.44385219 1096.44884999 192.70038142 1096.44223803 C180.99436743 1096.43994632 169.28835343 1096.43767093 157.58233942 1096.43546313 C156.85630614 1096.43532618 156.13027285 1096.43518923 155.38223855 1096.43504813 C121.61462888 1096.42870105 87.84701906 1096.42497749 54.07940895 1096.42192833 C51.88650144 1096.42173027 49.69359393 1096.42153108 47.50068643 1096.42133166 C32.96786242 1096.42001184 18.43503841 1096.4187372 3.9022144 1096.4174928 C-25.01313879 1096.41501646 -53.92849195 1096.41227478 -82.8438451 1096.40935075 C-84.2207902 1096.40921151 -85.59773531 1096.40907245 -86.97468042 1096.40893359 C-175.07034225 1096.40004673 -263.16600314 1096.38496982 -361.6638764 1096.36679858 C-361.71532482 1023.16190869 -361.76301913 949.95701662 -361.79090581 876.75211352 C-361.79131999 875.66766174 -361.79173416 874.58320995 -361.79216088 873.46589599 C-361.80114081 849.89456926 -361.80945118 826.32324235 -361.81707238 802.75191514 C-361.82081421 791.19157677 -361.82470389 779.63123844 -361.82867132 768.07090014 C-361.82906359 766.92054284 -361.82945587 765.77018553 -361.82986004 764.58496891 C-361.84263092 727.33727854 -361.865155 690.08960187 -361.89276806 652.84191979 C-361.92110598 614.5466637 -361.93954203 576.25141519 -361.94562137 537.9561488 C-361.94648576 532.54005607 -361.94746267 527.12396336 -361.94850812 521.70787066 C-361.94871039 520.64196633 -361.94891266 519.57606201 -361.94912106 518.47785755 C-361.95265826 501.35956941 -361.96655091 484.24130477 -361.9843725 467.12302619 C-362.00209127 449.88926544 -362.00876611 432.65552786 -362.00438053 415.42175832 C-362.0021088 405.19851433 -362.00809188 394.97535555 -362.02626902 384.75212704 C-362.03761027 377.90186647 -362.03780383 371.05166098 -362.02937184 364.20139644 C-362.02489025 360.3117559 -362.02483618 356.42227518 -362.03852594 352.53265253 C-362.11817446 328.49718665 -360.80135157 304.67028374 -356.0388764 281.05429858 C-355.65928777 279.14910449 -355.65928777 279.14910449 -355.27203069 277.20542163 C-343.96485101 221.94418325 -319.18999085 169.4358518 -282.6638764 126.36679858 C-281.89172796 125.4103142 -281.11957952 124.45382983 -280.32403265 123.46836108 C-273.41473657 115.01653057 -265.79599405 107.28313087 -258.1013764 99.55429858 C-257.57084661 99.0185924 -257.04031683 98.48288623 -256.49371038 97.93094653 C-249.55276889 90.93670795 -242.40328804 84.48660241 -234.6638764 78.36679858 C-233.42030485 77.34270796 -232.17907268 76.31576341 -230.94122015 75.28476733 C-221.61804682 67.62272932 -211.84179367 60.84238493 -201.6638764 54.36679858 C-201.04077581 53.96896166 -200.41767522 53.57112475 -199.7756928 53.16123217 C-138.83894444 14.59303506 -71.32493269 -0.19638286 0 0 Z " fill="#000000" transform="translate(5199.663876395673,2487.6332014212385)"/>
<path d="M0 0 C88.58201918 -0.04914321 177.16404062 -0.09615804 278.16220093 -0.12702942 C279.54924322 -0.12744777 280.93628551 -0.12786613 282.3233278 -0.12828448 C311.44198476 -0.1370538 340.56064186 -0.14520381 369.67929919 -0.15263903 C384.30801707 -0.15637503 398.93673491 -0.16022994 413.56545272 -0.16419732 C415.77204766 -0.16479507 417.97864259 -0.16538943 420.18523753 -0.16598364 C454.13682011 -0.17515635 488.08839946 -0.18686907 522.03997803 -0.20599365 C522.7691682 -0.20640435 523.49835838 -0.20681505 524.24964523 -0.20723819 C536.00527051 -0.21387475 547.76089567 -0.22072579 559.51652082 -0.22760532 C593.40396939 -0.24743339 627.29141545 -0.26565798 661.17886925 -0.27341938 C662.22566094 -0.27366029 662.22566094 -0.27366029 663.29359993 -0.27390606 C678.61869404 -0.27740453 693.94378817 -0.28008855 709.26888255 -0.28200295 C715.43654239 -0.28278774 721.60420221 -0.28368961 727.77186203 -0.28463173 C728.78435474 -0.28478215 728.78435474 -0.28478215 729.81730184 -0.28493561 C751.51347972 -0.28821705 773.20963905 -0.3010033 794.90580945 -0.31884663 C817.39815852 -0.33729955 839.89048809 -0.34502855 862.3828447 -0.34050413 C875.33401298 -0.33822936 888.28511409 -0.34424312 901.23627018 -0.36239263 C909.90744239 -0.37370949 918.57857103 -0.37394413 927.24974634 -0.36549544 C932.17775784 -0.36100144 937.10564306 -0.36101317 942.03364058 -0.37464955 C969.1918172 -0.44541604 996.10209907 0.21405707 1022.8125 5.75 C1024.08689941 6.00676514 1025.36129883 6.26353027 1026.67431641 6.52807617 C1082.56960074 18.11629293 1135.41462803 43.00683554 1179 80 C1179.99128906 80.80695312 1180.98257813 81.61390625 1182.00390625 82.4453125 C1189.8467151 88.89812195 1197.11684439 95.90341736 1204.3125 103.0625 C1205.23135986 103.97217529 1206.15021973 104.88185059 1207.09692383 105.8190918 C1213.15752169 111.90705127 1218.64207159 118.29156145 1224 125 C1224.87513787 126.03925394 1225.75526484 127.07437201 1226.64453125 128.1015625 C1277.10724368 186.83834129 1304.44491538 267.26037614 1304.26069641 344.26208496 C1304.26372741 346.09920356 1304.26762158 347.9363209 1304.27228898 349.77343607 C1304.28245599 354.75512615 1304.28041642 359.73674336 1304.27610838 364.7184391 C1304.27362028 370.1174558 1304.28268105 375.51645588 1304.29014587 380.91546631 C1304.3028384 391.46814061 1304.30469332 402.0207894 1304.30234561 412.57347006 C1304.30055583 421.16110957 1304.30232618 429.7487414 1304.30657005 438.33638 C1304.30716524 439.56297287 1304.30776043 440.78956573 1304.30837366 442.05332807 C1304.30958553 444.54595165 1304.31079967 447.03857522 1304.31201603 449.5311988 C1304.32287103 472.86273441 1304.32073902 496.19425553 1304.31463119 519.52579194 C1304.30946633 540.81208972 1304.32070975 562.09833572 1304.33972941 583.38462657 C1304.35916103 605.30202626 1304.36735434 627.21940433 1304.36360615 649.13681269 C1304.36170185 661.41732956 1304.36410579 673.69780747 1304.37832069 685.97831726 C1304.39030372 696.43555352 1304.39156267 706.89272685 1304.37953053 717.34996408 C1304.37368943 722.67209388 1304.37240798 727.99410898 1304.38453293 733.31623077 C1304.5756488 823.51576409 1279.27435919 910.66540402 1217.3359375 978.41796875 C1215.44008397 980.51355266 1213.58807519 982.63433927 1211.7421875 984.7734375 C1207.90832721 989.16210408 1203.87205509 993.32012693 1199.75 997.4375 C1199.00202148 998.18467285 1198.25404297 998.9318457 1197.48339844 999.70166016 C1192.72748568 1004.40527633 1187.90836186 1008.79678886 1182.63671875 1012.91796875 C1180.2331988 1014.81585932 1177.92993837 1016.79785241 1175.63037109 1018.81933594 C1162.29712406 1030.4542653 1147.38139949 1040.29498281 1132 1049 C1131.2255957 1049.44520996 1130.45119141 1049.89041992 1129.65332031 1050.34912109 C1086.52058581 1075.05727606 1039.65727495 1089.74653047 990.25 1094.75 C989.02015381 1094.87785889 987.79030762 1095.00571777 986.52319336 1095.13745117 C979.32426533 1095.81334656 972.23715429 1096.06936678 965.01074219 1096.03222656 C964.13984955 1096.02990021 963.26895691 1096.02757385 962.37167358 1096.025177 C960.24777432 1096.01916545 958.12388461 1096.00992017 956 1096 C955.99944384 1095.43474216 955.99888767 1094.86948432 955.99831466 1094.28709745 C955.93768119 1032.73354676 955.87458826 971.17999881 955.79867554 909.62646484 C955.7969751 908.24682568 955.7969751 908.24682568 955.79524031 906.83931503 C955.77058771 886.84948962 955.74549478 866.85966479 955.71994839 846.8698405 C955.70742276 837.06654742 955.69499441 827.26325421 955.68261719 817.45996094 C955.68138386 816.48442596 955.68015054 815.50889098 955.67887984 814.50379434 C955.63896443 782.89545196 955.60547021 751.28710675 955.57531309 719.67875367 C955.54428353 687.19156887 955.50676147 654.70439786 955.46109388 622.21723019 C955.45464367 617.62650967 955.44826753 613.03578905 955.44193649 608.44506836 C955.44068819 607.54156671 955.43943988 606.63806507 955.43815375 605.70718458 C955.41826626 591.17519563 955.40520378 576.6432082 955.39470672 562.11120977 C955.38400232 547.49445249 955.3660763 532.8777181 955.34083296 518.26097858 C955.32606153 509.5815998 955.31677303 500.90225604 955.31543317 492.22286458 C955.31399008 486.41699832 955.30529747 480.61117141 955.29084408 474.80532305 C955.2828251 471.50236973 955.27893867 468.19955796 955.28172119 464.89658642 C955.30469145 432.26636671 950.85713088 405.26816797 929 380 C928.41734375 379.31550781 927.8346875 378.63101563 927.234375 377.92578125 C913.09159558 362.60443688 891.38340153 352.89078976 871 350 C868.49086419 349.90855387 865.97959035 349.86918346 863.46879101 349.86577892 C862.72745341 349.86342669 861.98611581 349.86107446 861.22231343 349.85865095 C858.73642554 349.85199026 856.25059026 349.85241829 853.76469421 349.85282898 C851.96496829 349.84952852 850.16524311 349.84580256 848.36551887 349.8416875 C843.41800495 349.83167991 838.47050317 349.82795269 833.52298057 349.82529819 C828.18732748 349.82139139 822.85168396 349.81181324 817.51603699 349.80308533 C804.62846603 349.78333033 791.7408943 349.7732554 778.85331199 349.76435754 C772.78119828 349.75997259 766.70908545 349.75460627 760.63697243 349.74936867 C740.44588114 349.73235647 720.2547904 349.71786332 700.06369305 349.71061993 C694.82493273 349.70871009 689.58617241 349.70678975 684.34741211 349.70483398 C683.04537513 349.70435024 681.74333814 349.7038665 680.40184549 349.7033681 C659.31987505 349.69507164 638.23796142 349.66974113 617.15601578 349.63725331 C595.50131497 349.60415554 573.846643 349.58616866 552.19191676 349.58297569 C540.03785321 349.58081299 527.88387247 349.57209955 515.7298336 349.54651451 C505.3765534 349.52477032 495.02337613 349.51677536 484.67007568 349.52648129 C479.39202794 349.53101534 474.11419242 349.52919194 468.83617401 349.50971985 C463.99408015 349.49201113 459.15235212 349.49314805 454.31025396 349.50861714 C452.56854972 349.51098157 450.82681963 349.50673091 449.08515473 349.49478849 C420.91243797 349.31374486 396.20834979 359.38647834 375.84765625 379.08203125 C354.14237249 402.24866084 349.38298762 429.60101131 349.48101807 460.21437073 C349.4773528 462.96379952 349.46767207 465.71320005 349.458287 468.46261448 C349.44111293 474.41724621 349.43853094 480.37174119 349.44580269 486.32639122 C349.45654768 495.18054405 349.44426375 504.03456319 349.42743097 512.88870125 C349.39975218 527.78657649 349.39049672 542.68440919 349.39188385 557.58230782 C349.39319578 572.32475048 349.38623172 587.06715134 349.36830902 601.80958366 C349.36719763 602.72756301 349.36608624 603.64554235 349.36494118 604.59133924 C349.35925378 609.25363687 349.35341944 613.91593431 349.34752855 618.57823168 C349.30610979 651.567694 349.28310435 684.55714586 349.27099609 717.54663086 C349.25919364 749.58765853 349.23900805 781.62866309 349.20751953 813.66967773 C349.20655158 814.65800086 349.20558363 815.64632398 349.20458635 816.66459629 C349.1948562 826.59009706 349.18495613 836.51559766 349.17493158 846.44109813 C349.15451582 866.65896826 349.13523396 886.87683942 349.11663818 907.0947113 C349.11578185 908.02421653 349.11492553 908.95372176 349.11404325 909.91139381 C349.05702699 971.94091645 349.02643978 1033.97045772 349 1096 C345.82886203 1096.01411985 342.6577323 1096.02254738 339.48657227 1096.0300293 C338.59789711 1096.0340551 337.70922195 1096.0380809 336.79361725 1096.0422287 C329.11553174 1096.05578079 321.57897066 1095.59819103 313.9375 1094.8125 C312.62458984 1094.68012939 311.31167969 1094.54775879 309.95898438 1094.41137695 C244.36369664 1087.51760468 179.68260086 1061.51227333 129 1019 C127.91304863 1018.10381699 126.82580209 1017.20799187 125.73828125 1016.3125 C111.23350666 1004.28159054 97.18625446 991.39726266 85 977 C84.20335938 976.0925 83.40671875 975.185 82.5859375 974.25 C66.81499771 956.1656025 53.48128798 935.95201998 42.03662109 914.89257812 C41.06050387 913.11046302 40.05651228 911.34369691 39.05078125 909.578125 C21.26442994 877.68535713 10.4061516 841.78816441 4.25 805.9375 C3.95174316 804.2198645 3.95174316 804.2198645 3.64746094 802.4675293 C0.18691502 781.17745543 -0.29500519 759.87661718 -0.24453239 738.35456648 C-0.23755794 734.40797695 -0.24242539 730.46139719 -0.24568737 726.51480526 C-0.24980367 719.62117644 -0.24660117 712.72758241 -0.23841095 705.83395767 C-0.2262668 695.58363333 -0.22574617 685.33333061 -0.22749493 675.08300039 C-0.23011392 657.83457361 -0.22347351 640.58616224 -0.21146011 623.33773994 C-0.19960492 606.27250657 -0.19192396 589.20727962 -0.18975449 572.14204216 C-0.18961701 571.07890884 -0.18947953 570.01577553 -0.18933788 568.92042605 C-0.18866117 563.52077761 -0.18805842 558.12112917 -0.18748413 552.72148072 C-0.18328913 514.52761365 -0.1698307 476.33375494 -0.15087891 438.13989258 C-0.13249479 401.04711959 -0.11833504 363.9543489 -0.10986328 326.86157227 C-0.10960023 325.71716243 -0.10933718 324.57275259 -0.10906615 323.39366366 C-0.10642899 311.90048379 -0.10387738 300.40730391 -0.10138843 288.914124 C-0.09631672 265.50353514 -0.09067421 242.09294643 -0.08468628 218.68235779 C-0.0844117 217.60609996 -0.08413712 216.52984214 -0.08385422 215.42097044 C-0.06546908 143.61397682 -0.03378059 71.80698783 0 0 Z " fill="#000000" transform="translate(3348,2503)"/>
<path d="M0 0 C1.03092648 0.00200912 1.03092648 0.00200912 2.08267975 0.00405884 C3.75849237 0.00751947 5.43430097 0.01284248 7.11010742 0.01855469 C7.11108423 0.60804344 7.11206104 1.1975322 7.11306745 1.80488425 C7.17145111 36.81120809 7.24533175 71.81746627 7.3390937 106.82371365 C7.35036068 111.03522612 7.36149932 115.24673893 7.37255859 119.45825195 C7.37586412 120.71580615 7.37586412 120.71580615 7.37923642 121.99876549 C7.41452399 135.53975961 7.4394362 149.08075369 7.46045444 162.62177662 C7.48228477 176.5357476 7.51540321 190.44965938 7.55880898 204.36357993 C7.5852017 212.93608369 7.60298797 221.50851381 7.60945346 230.08105614 C7.61474552 235.9747213 7.63108879 241.86829412 7.65577308 247.76190964 C7.66965894 251.15261951 7.67735854 254.54302596 7.67511559 257.93378448 C7.66107866 288.96736008 11.27328547 315.61584362 32.11010742 340.01855469 C32.74432617 340.84613281 33.37854492 341.67371094 34.03198242 342.52636719 C48.53284976 359.91650509 72.70373026 370.14818018 94.77196813 372.81235242 C99.28735697 373.21056797 103.80743889 373.16128842 108.33724976 373.15658569 C109.44871734 373.15940697 110.56018493 373.16222825 111.70533335 373.16513503 C115.42018054 373.17345047 119.1349978 373.17481671 122.84985352 373.17626953 C125.51817527 373.18094034 128.18649308 373.18601846 130.85481262 373.19166565 C136.59991671 373.20316887 142.34501791 373.21142559 148.09012985 373.21778488 C157.19646867 373.22815394 166.30277151 373.24873218 175.40908813 373.27090454 C178.53207195 373.27838403 181.65505592 373.28579795 184.77803993 373.29319191 C185.55854603 373.29504248 186.33905213 373.29689304 187.14320993 373.29879969 C196.02149516 373.31971242 204.89978439 373.33854315 213.77807617 373.35644531 C214.58915115 373.35808349 215.40022613 373.35972168 216.23587914 373.3614095 C229.33514883 373.38760927 242.4344213 373.4063003 255.53370599 373.42303722 C269.0242054 373.44055019 282.51465058 373.46949668 296.00510657 373.50792658 C304.30020746 373.53114094 312.59521983 373.54530422 320.89035346 373.54725422 C326.59756781 373.54938818 332.30469481 373.56251851 338.01186977 373.58373354 C341.28803742 373.595582 344.56400159 373.60135869 347.84019279 373.5970211 C393.33644712 373.54647194 436.80041243 382.55093935 477.11010742 404.01855469 C477.8397168 404.40269531 478.56932617 404.78683594 479.32104492 405.18261719 C489.83643166 410.74536444 499.65416212 416.80260565 509.11010742 424.01855469 C509.69244141 424.458125 510.27477539 424.89769531 510.87475586 425.35058594 C528.89581366 438.99664607 546.50430777 454.89310042 560.11010742 473.01855469 C560.60075684 473.67049805 561.09140625 474.32244141 561.59692383 474.99414062 C569.07343937 484.98228057 576.01724643 495.12958764 582.11010742 506.01855469 C582.50262695 506.70933105 582.89514648 507.40010742 583.29956055 508.11181641 C621.5657538 575.9266668 615.11010742 643.48940121 615.11010742 722.01855469 C723.35010742 722.01855469 831.59010742 722.01855469 943.11010742 722.01855469 C943.11010742 814.39209215 924.04027012 899.23059483 863.11010742 971.01855469 C862.3031543 972.00984375 861.49620117 973.00113281 860.66479492 974.02246094 C854.21198547 981.86526979 847.20669006 989.13539908 840.04760742 996.33105469 C839.13793213 997.24991455 838.22825684 998.16877441 837.29101562 999.11547852 C831.20305615 1005.17607638 824.81854597 1010.66062627 818.11010742 1016.01855469 C817.07085348 1016.89369256 816.03573541 1017.77381953 815.00854492 1018.66308594 C766.00783527 1060.76121885 702.63328665 1085.42708497 639.11010742 1094.01855469 C638.2407959 1094.13714844 637.37148438 1094.25574219 636.47583008 1094.37792969 C622.23242148 1096.24555321 608.61697196 1096.01855469 594.11010742 1096.01855469 C594.11010742 972.92855469 594.11010742 849.83855469 594.11010742 723.01855469 C506.33315578 723.07872432 506.33315578 723.07872432 418.55626382 723.17593285 C406.65512746 723.19197171 394.75399083 723.20779901 382.85285353 723.22312839 C381.33187142 723.225088 379.81088932 723.22705345 378.28990722 723.22902481 C354.06391442 723.26037597 329.83793286 723.27888523 305.61192327 723.29064715 C280.7029697 723.30280902 255.79406252 723.32805011 230.88513986 723.36963083 C227.36288944 723.37550449 223.84063879 723.3812294 220.31838799 723.38686371 C219.27859496 723.3885339 219.27859496 723.3885339 218.21779602 723.39023782 C207.08174452 723.40774347 195.94572887 723.41155632 184.80966546 723.4101839 C173.60053596 723.40909703 162.39149715 723.42290978 151.18239564 723.45071897 C145.11456379 723.46534236 139.04690374 723.47358704 132.97905731 723.46435738 C127.41504787 723.45603757 121.85138279 723.46631554 116.28742426 723.49089131 C114.28310497 723.49654973 112.27875276 723.49559892 110.27444363 723.48706713 C80.97418715 723.37310973 56.6089397 732.42306226 35.04760742 752.70605469 C15.84389772 772.60527098 7.97665538 798.68738442 7.95188904 825.80665588 C7.94448207 827.54553327 7.94448207 827.54553327 7.93692547 829.31953949 C7.92428345 832.51445109 7.91595556 835.7093394 7.90949881 838.90426838 C7.90145011 842.35814264 7.88776793 845.81199528 7.87478638 849.26585388 C7.85308666 855.24235413 7.83491859 861.21885663 7.81918144 867.19537544 C7.7964233 875.83630962 7.76828889 884.4772198 7.73886216 893.11813354 C7.69125891 907.1390478 7.64797515 921.15997191 7.60742188 935.1809082 C7.5680299 948.79712693 7.52659486 962.41333692 7.48242188 976.02954102 C7.47833547 977.28949338 7.47833547 977.28949338 7.47416651 978.57489932 C7.46048642 982.78897182 7.44676626 987.00304418 7.43302619 991.21711648 C7.31917563 1026.15091108 7.21234116 1061.08472422 7.11010742 1096.01855469 C3.26383785 1096.03158449 -0.58242596 1096.0394336 -4.42871094 1096.04638672 C-5.51157127 1096.05011795 -6.59443161 1096.05384918 -7.7101059 1096.05769348 C-15.36482727 1096.06806635 -22.84521426 1095.79551762 -30.45239258 1094.89355469 C-31.5996582 1094.76231201 -32.74692383 1094.63106934 -33.92895508 1094.49584961 C-114.3447039 1084.67701728 -185.53017897 1048.10118319 -242.68197632 991.40170288 C-244.09732829 989.99826081 -245.51662268 988.59879811 -246.93603516 987.19946289 C-253.02422209 981.11892786 -258.56947115 974.7781276 -263.88989258 968.01855469 C-264.45949707 967.3028833 -265.02910156 966.58721191 -265.6159668 965.84985352 C-282.2381951 944.82853316 -296.42306107 922.24695077 -307.88989258 898.01855469 C-308.2426123 897.28121094 -308.59533203 896.54386719 -308.95874023 895.78417969 C-333.81180049 843.51272344 -341.38927921 789.34777063 -341.28206658 732.12016618 C-341.27518883 726.6729089 -341.28579983 721.22567874 -341.29400635 715.77842712 C-341.3072539 705.14648932 -341.30450644 694.51461552 -341.29576842 683.88267534 C-341.28895695 675.23225458 -341.28809002 666.58185159 -341.29133987 657.93142891 C-341.29179957 656.69410559 -341.29225927 655.45678227 -341.2927329 654.1819643 C-341.2936922 651.66735199 -341.29466485 649.15273969 -341.29565068 646.63812739 C-341.30393572 623.80038601 -341.29538557 600.96267706 -341.27962288 578.1249412 C-341.26538784 557.3426343 -341.26666514 536.56038259 -341.28100586 515.77807617 C-341.29712087 492.34704373 -341.30335619 468.91604172 -341.29416907 445.48500448 C-341.29321355 442.98062456 -341.29227043 440.47624463 -341.29133987 437.9718647 C-341.29087705 436.74007396 -341.29041422 435.50828323 -341.28993737 434.2391655 C-341.28736077 425.61130412 -341.29168954 416.98346249 -341.29877853 408.35560417 C-341.30724275 397.82381671 -341.30481085 387.29209622 -341.2889363 376.7603163 C-341.2811195 371.39990906 -341.27784761 366.03961296 -341.28788376 360.67920685 C-341.32523502 338.93000724 -341.182215 317.56906786 -337.88989258 296.01855469 C-337.76556972 295.2031773 -337.64124687 294.38779991 -337.51315665 293.54771411 C-336.82300776 289.11888729 -336.02737837 284.72449123 -335.13989258 280.33105469 C-334.88457764 279.04416748 -334.6292627 277.75728027 -334.36621094 276.43139648 C-331.92797251 264.40336614 -328.68029452 252.6848975 -324.88989258 241.01855469 C-324.61564453 240.16293945 -324.34139648 239.30732422 -324.05883789 238.42578125 C-310.64301679 196.99221192 -289.13110133 157.61976133 -260.41308594 124.81298828 C-258.46565238 122.51876859 -256.60234618 120.16096041 -254.72192383 117.81152344 C-249.92884196 111.93634139 -244.7220618 106.58900326 -239.32739258 101.26855469 C-238.43342773 100.37523438 -237.53946289 99.48191406 -236.6184082 98.56152344 C-231.53587507 93.51245248 -226.36442886 88.63972205 -220.88989258 84.01855469 C-220.28089111 83.50276855 -219.67188965 82.98698242 -219.04443359 82.45556641 C-158.31690577 31.49574162 -79.81493681 -0.20828676 0 0 Z " fill="#000000" transform="translate(5198.889892578125,3751.9814453125)"/>
<path d="M0 0 C2.01144916 0.00028245 4.02289843 0.00012302 6.03434753 -0.0004425 C11.4674163 -0.00072824 16.90046277 0.00513225 22.33352637 0.01213145 C28.0216509 0.01840232 33.70977599 0.01897174 39.39790344 0.02015686 C50.15691288 0.02325919 60.9159121 0.03145774 71.67491704 0.04150635 C83.92886748 0.05270164 96.18281842 0.05818654 108.4367727 0.06320179 C133.63274019 0.0736413 158.82869862 0.09121942 184.0246582 0.11352539 C184.09328345 29.58328712 184.14628353 59.05304503 184.17785419 88.52287005 C184.18160574 92.012073 184.18548876 95.5012758 184.18945312 98.99047852 C184.19024006 99.68503616 184.19102699 100.37959381 184.19183777 101.09519866 C184.20484664 112.30113555 184.2284752 123.50702568 184.25611659 134.71293494 C184.28429722 146.23463759 184.30063688 157.75630754 184.30692369 169.27804399 C184.31081691 175.73976864 184.31989499 182.20138768 184.34184837 188.66307831 C184.36239197 194.75990241 184.36845629 200.85657856 184.36398125 206.95343399 C184.36479852 209.1768207 184.37065662 211.40021298 184.38227463 213.62356949 C184.60620171 258.7352386 170.27190755 297.27107112 139.0246582 330.11352539 C138.39301758 330.80961914 137.76137695 331.50571289 137.1105957 332.22290039 C113.1902435 357.7238926 75.52414399 372.93108664 41.0246582 375.11352539 C34.34540667 375.30081783 27.66037995 375.24007382 20.97924805 375.22705078 C18.9482422 375.2267684 16.91723625 375.22692764 14.88623047 375.22749329 C9.39525321 375.22777928 3.90429795 375.22191457 -1.58667421 375.21491933 C-7.33352833 375.20865281 -13.08038299 375.20807938 -18.82723999 375.20689392 C-29.69961377 375.20379032 -40.57197745 375.19559004 -51.44434679 375.18554443 C-63.82644574 375.17435311 -76.20854518 375.16886524 -88.59064794 375.163849 C-114.05221815 375.1534066 -139.51377941 375.13582599 -164.9753418 375.11352539 C-165.02218791 346.13986168 -165.05739221 317.16620369 -165.07896614 288.19250965 C-165.08100564 285.50724599 -165.08308828 282.82198236 -165.08520508 280.13671875 C-165.0857297 279.46933895 -165.08625432 278.80195914 -165.08679484 278.11435571 C-165.09492628 268.01893517 -165.1089473 257.92353372 -165.1262207 247.828125 C-165.1462366 236.09268273 -165.15907759 224.35725757 -165.16351879 212.62179869 C-165.16611235 206.41549063 -165.17215198 200.20923151 -165.18680191 194.00293922 C-165.20051577 188.14497867 -165.20453695 182.28708657 -165.20155716 176.42911148 C-165.20210122 174.29483987 -165.20599554 172.16056564 -165.21375275 170.02630806 C-165.27323983 152.79419138 -165.09630673 135.08029055 -160.7253418 118.30102539 C-160.50773193 117.43687012 -160.29012207 116.57271484 -160.06591797 115.68237305 C-153.77516633 91.52356593 -141.98275166 69.49570152 -124.9284668 51.21899414 C-123.33473456 49.50095078 -121.86075254 47.76487204 -120.4128418 45.92602539 C-117.22484622 42.24756896 -113.73212303 39.19945283 -109.9753418 36.11352539 C-109.0369043 35.33750977 -108.0984668 34.56149414 -107.1315918 33.76196289 C-98.9607916 27.16048332 -90.29575802 21.93056193 -80.9753418 17.11352539 C-80.35933105 16.79254883 -79.74332031 16.47157227 -79.10864258 16.14086914 C-53.99772193 3.2378645 -27.87734872 -0.05499074 0 0 Z " fill="#C11C14" transform="translate(5957.975341796875,3751.886474609375)"/>
<path d="M0 0 C7.86850679 4.25631908 12.30787175 9.97220418 15.43359375 18.31640625 C18.52361059 30.7953204 15.84428361 43.00233782 9.37109375 53.94140625 C3.00544772 63.29222676 -5.49959944 70.66387534 -14.56640625 77.31640625 C-11.47018447 83.12963557 -8.13240228 88.56024566 -4.25390625 93.87890625 C1.6710966 102.12972634 7.31057685 110.55742797 12.91333008 119.02954102 C18.10708049 128.29282001 18.10708049 128.29282001 25.43359375 135.31640625 C26.1319671 133.02023933 26.82323043 130.72220054 27.5078125 128.421875 C28.14751912 126.27602368 28.79656021 124.1329409 29.453125 121.9921875 C31.79839109 114.14828256 33.40822207 106.43842926 34.43359375 98.31640625 C38.06359375 98.31640625 41.69359375 98.31640625 45.43359375 98.31640625 C44.013754 113.57968361 41.2018086 127.3863134 34.5078125 141.29296875 C33.2748907 144.7630832 33.092456 145.91197966 34.43359375 149.31640625 C36.13204527 151.98382418 38.04405652 154.45583977 39.99609375 156.94140625 C41.08651715 158.36153428 42.1763584 159.78210949 43.265625 161.203125 C43.80268066 161.89841309 44.33973633 162.59370117 44.89306641 163.31005859 C47.03173626 166.09541341 49.11300091 168.91752863 51.18359375 171.75390625 C51.8178125 172.61886719 52.45203125 173.48382813 53.10546875 174.375 C54.43359375 176.31640625 54.43359375 176.31640625 54.43359375 177.31640625 C49.63315784 177.92320292 45.2157242 178.15121782 40.43359375 177.31640625 C36.85692148 174.53330814 34.78490956 171.14818016 32.43359375 167.31640625 C31.28073707 165.80576646 30.11535165 164.30454582 28.93359375 162.81640625 C26.43359375 159.5717254 26.43359375 159.5717254 26.43359375 157.31640625 C25.2873104 158.31589037 24.14160522 159.31603756 22.99609375 160.31640625 C21.89201172 161.27353516 21.89201172 161.27353516 20.765625 162.25 C19.2566484 163.58709987 17.77253386 164.9530277 16.3203125 166.3515625 C6.21247953 175.94199268 -5.43334895 180.7194993 -19.31640625 180.62890625 C-20.64647705 180.62153442 -20.64647705 180.62153442 -22.00341797 180.61401367 C-34.38910307 180.39271913 -46.61486585 176.7358987 -55.91015625 168.1640625 C-67.54091499 155.18918305 -70.26417882 140.18225342 -69.69824219 123.42773438 C-69.42406074 119.03676932 -68.36076486 115.30919659 -66.56640625 111.31640625 C-66.18742187 110.45144531 -65.8084375 109.58648437 -65.41796875 108.6953125 C-59.04753981 95.71510324 -45.66349967 81.86495296 -32.56640625 75.31640625 C-34.08619821 71.14089535 -36.1797879 67.43343929 -38.44140625 63.62890625 C-46.20245521 50.25935501 -51.20575213 36.07758359 -47.31640625 20.57421875 C-44.35105354 11.64727153 -38.74376426 4.25559503 -30.31640625 -0.05859375 C-20.88151008 -4.39864599 -9.51541416 -4.05783635 0 0 Z M-31.81640625 14.44140625 C-36.95183678 22.87818499 -38.74811774 30.74282315 -36.50390625 40.37890625 C-33.68109561 50.07813712 -28.80037813 59.38226022 -22.56640625 67.31640625 C-17.87849656 65.85252367 -14.70722599 63.11705577 -11.19140625 59.81640625 C-10.61922363 59.28176758 -10.04704102 58.74712891 -9.45751953 58.19628906 C-0.91416715 50.01932299 5.38750538 41.37589111 5.87109375 29.31640625 C5.67498437 22.82845411 4.25838864 18.31524063 -0.21484375 13.56640625 C-5.9355618 8.37029553 -11.07732695 6.78831041 -18.77734375 6.93359375 C-24.31498945 7.69366277 -27.8593623 10.70419807 -31.81640625 14.44140625 Z M-33.37890625 90.00390625 C-34.59343586 91.07067026 -35.80827685 92.13707987 -37.0234375 93.203125 C-37.61608398 93.72801514 -38.20873047 94.25290527 -38.81933594 94.79370117 C-40.45958444 96.22330289 -42.13106349 97.60164502 -43.8203125 98.97265625 C-52.28378451 106.1961032 -57.73590357 116.58884296 -58.7890625 127.65625 C-59.17453186 138.26503708 -55.99876513 147.88442277 -49.56640625 156.31640625 C-41.16027079 165.32965149 -32.06336671 169.84155823 -19.75390625 170.45703125 C-7.50801584 170.13134268 2.49153493 163.85876939 11.25 155.72265625 C13.94408666 152.7538595 16.15575643 149.61506698 18.43359375 146.31640625 C17.87414063 145.54941406 17.3146875 144.78242188 16.73828125 143.9921875 C11.65178554 136.97009386 6.73451026 129.84923109 1.93359375 122.62890625 C1.3600415 121.76797363 0.78648926 120.90704102 0.19555664 120.02001953 C-2.93271145 115.31392464 -6.04042307 110.59517436 -9.12387085 105.8596344 C-10.75799082 103.3535196 -12.40022551 100.85277786 -14.04345703 98.35263062 C-14.84860596 97.12292315 -15.64990101 95.89068349 -16.44726562 94.65591431 C-17.5648844 92.92575223 -18.6949945 91.20440359 -19.828125 89.484375 C-20.47740967 88.48688232 -21.12669434 87.48938965 -21.7956543 86.46166992 C-22.38000244 85.75373291 -22.96435059 85.0457959 -23.56640625 84.31640625 C-28.01205128 84.31640625 -30.21759348 87.18024155 -33.37890625 90.00390625 Z " fill="#000000" transform="translate(3251.56640625,5290.68359375)"/>
<path d="M0 0 C8.95977654 6.91955307 8.95977654 6.91955307 11 11 C11.495 4.565 11.495 4.565 12 -2 C15.3 -2 18.6 -2 22 -2 C22.06971064 15.19508152 22.12311804 32.39010584 22.15543652 49.58529663 C22.1708473 57.57091103 22.19182479 65.55643553 22.22631836 73.54199219 C22.2563994 80.50938483 22.27561696 87.47671231 22.28226548 94.44416809 C22.28614639 98.12688271 22.29514313 101.80941105 22.31719017 105.49206543 C22.57675692 150.67928214 22.57675692 150.67928214 8.6171875 165.54296875 C-1.49454281 174.65329582 -13.11465767 175.71943251 -26.19921875 175.34765625 C-36.41628513 174.79382654 -44.91735448 170.6599616 -51.75390625 163.046875 C-54.77076029 159.23764243 -56.80562414 155.77750346 -58 151 C-54.27392707 150.65308976 -50.71452313 150.47705552 -47 151 C-44.6875 153.6875 -44.6875 153.6875 -43 157 C-36.94745217 163.05254783 -30.57959439 165.12353251 -22.0625 165.375 C-12.62874996 165.08731258 -4.84983572 162.66594751 2 156 C10.76879071 146.38940538 11.5458108 131.27005181 11.140625 118.9375 C11.09421875 117.968125 11.0478125 116.99875 11 116 C10.47792969 116.59167969 9.95585937 117.18335937 9.41796875 117.79296875 C1.79816894 125.9732442 -6.3720525 130.49533102 -17.6015625 131.23828125 C-28.13985887 131.5270554 -37.82210808 130.38093797 -46.38671875 123.57421875 C-61.52477431 108.80270207 -63.95250771 85.71011049 -64.30053711 65.68359375 C-64.37974501 45.01841522 -62.0197889 21.45787981 -47.1875 5.625 C-35.24345856 -5.53958384 -14.37981719 -8.71992114 0 0 Z M-42.47265625 15.70703125 C-52.33653314 30.51546024 -55.03056188 50.50237497 -54 68 C-53.95891113 68.70995117 -53.91782227 69.41990234 -53.87548828 70.15136719 C-52.88827162 85.67558578 -50.93774724 104.48047459 -39.05078125 115.8671875 C-32.52256532 121.06489085 -26.26741017 122.83872277 -18 122 C-9.92964169 120.51105017 -3.42780974 117.37997912 1.6875 110.84375 C15.14001349 90.12687923 14.57105055 58.50088136 10 35 C7.15268531 23.68946882 2.66771472 14.83064704 -7 8 C-19.32124502 0.74615638 -33.91274981 4.97190152 -42.47265625 15.70703125 Z " fill="#000000" transform="translate(6097,5337)"/>
<path d="M0 0 C3.3 0 6.6 0 10 0 C10 58.74 10 117.48 10 178 C6.7 178 3.4 178 0 178 C-0.495 170.575 -0.495 170.575 -1 163 C-1.969375 164.19625 -2.93875 165.3925 -3.9375 166.625 C-11.55089578 175.22813723 -20.02342879 179.09804787 -31.44921875 180.24609375 C-41.12305821 180.5331012 -49.31469378 177.93922504 -57 172 C-73.02963068 156.00149482 -74.16739733 131.39534457 -74.3125 110.125 C-74.25673384 90.2085129 -72.66216349 68.60801185 -58.37890625 53.2578125 C-50.23885691 45.70053805 -40.8678142 43.7192587 -30.05859375 43.8515625 C-19.1226337 44.38229875 -10.86189562 48.56778953 -3.3125 56.44921875 C-2 58 -2 58 -1 60 C-0.67 40.2 -0.34 20.4 0 0 Z M-50.78125 60.72265625 C-64.2937884 75.12267069 -64.57998871 96.9350633 -64.09765625 115.66162109 C-63.39301387 132.53428282 -61.77511702 151.57519163 -49.7109375 164.52734375 C-43.86610584 169.55816917 -37.48666375 170.66553848 -29.9296875 170.38671875 C-23.11548948 169.48724461 -16.51653566 166.26128356 -12 161 C2.3773865 141.1365055 2.44630489 113.05387889 -1.1875 89.6875 C-3.52523486 76.36830475 -7.63913982 64.72979623 -19.04296875 56.53125 C-29.68880833 50.58147937 -42.08974304 52.31705413 -50.78125 60.72265625 Z " fill="#000000" transform="translate(2521,5289)"/>
<path d="M0 0 C1.45200806 0.00918457 1.45200806 0.00918457 2.93334961 0.01855469 C11.36578321 0.2032117 17.78297872 1.79453052 25 6.1875 C32.58349831 14.21708645 34.42492132 22.96461479 34.41210938 33.71166992 C34.41894241 34.60213516 34.42577545 35.4926004 34.43281555 36.41004944 C34.44633062 38.32952062 34.4554305 40.24902705 34.46052551 42.16853905 C34.46885901 45.20772534 34.48940236 48.24661755 34.51306152 51.28572083 C34.56928814 58.82801079 34.60470113 66.370372 34.64068604 73.91278076 C34.67194127 80.29990023 34.71112637 86.68687482 34.76094055 93.07387733 C34.78098375 96.06572544 34.78932126 99.05746101 34.79724121 102.04936218 C34.81021314 103.88341686 34.82373339 105.71746776 34.83789062 107.55151367 C34.83690872 108.38123688 34.83592682 109.21096008 34.83491516 110.06582642 C34.87993121 114.25237419 35.03155494 117.68554351 37.125 121.4375 C39.28324934 122.46568386 39.28324934 122.46568386 41.75 122.75 C43.19375 122.976875 44.6375 123.20375 46.125 123.4375 C46.125 126.7375 46.125 130.0375 46.125 133.4375 C38.72625494 133.77898054 33.69697973 133.43023977 27.8125 128.5 C26.20734375 126.53814236 25.21177836 124.71071761 24.125 122.4375 C23.41537109 123.12585937 23.41537109 123.12585937 22.69140625 123.828125 C13.06492304 132.76030046 2.04572489 135.96905798 -11.00390625 135.69140625 C-20.62316256 134.84072372 -28.38757971 132.33340007 -35.0625 125.1875 C-42.41328221 116.20107253 -42.52657078 104.55040155 -41.875 93.4375 C-40.38402546 83.7208947 -36.03535404 73.95008133 -28.03588867 67.88867188 C-17.90286402 61.08371215 -5.78710654 56.94190791 5.45874023 52.31567383 C7.65358365 51.41082596 9.84451408 50.49699389 12.03515625 49.58203125 C12.70386246 49.31010452 13.37256866 49.0381778 14.0615387 48.75801086 C18.26169193 46.99683185 21.06739293 45.55271414 23.125 41.4375 C23.64768913 33.21519796 23.74418728 25.96540954 20.125 18.4375 C19.63 16.9525 19.63 16.9525 19.125 15.4375 C17.29532013 14.2853086 17.29532013 14.2853086 15.125 13.4375 C14.49722656 13.15648438 13.86945312 12.87546875 13.22265625 12.5859375 C4.95048148 9.44219354 -3.88922844 9.08322876 -12.3125 11.9375 C-17.99521596 14.55247336 -21.43014726 18.71314658 -23.6796875 24.51171875 C-24.32675419 26.59950593 -24.32675419 26.59950593 -24.875 29.4375 C-28.505 29.4375 -32.135 29.4375 -35.875 29.4375 C-34.53149636 20.03297449 -31.65572967 12.13823955 -24.0625 6 C-16.93227887 0.72709916 -8.59390423 -0.09231951 0 0 Z M13.8984375 59.7265625 C13.07679108 60.06746918 12.25514465 60.40837585 11.40859985 60.75961304 C9.6642823 61.48563209 7.92084671 62.21377314 6.17822266 62.94384766 C3.53588055 64.04751325 0.88734363 65.13524013 -1.76171875 66.22265625 C-3.45874393 66.9313092 -5.15537125 67.64091582 -6.8515625 68.3515625 C-7.63520172 68.67057526 -8.41884094 68.98958801 -9.22622681 69.31826782 C-19.07195751 73.49674737 -26.61702268 79.42017333 -30.72265625 89.5234375 C-32.95330894 97.471061 -32.60139001 107.45801705 -29.1875 115 C-26.08002048 120.25794541 -21.68970324 123.55966382 -15.875 125.4375 C-4.34506779 126.57072762 4.79252027 125.23059522 13.9375 117.8125 C19.97852205 112.09224018 23.86185281 104.7674651 24.21096802 96.36955261 C24.2406481 93.83299055 24.23731939 91.29841279 24.22265625 88.76171875 C24.22053383 87.37398003 24.22053383 87.37398003 24.21836853 85.95820618 C24.21278715 83.01377073 24.20023805 80.06941233 24.1875 77.125 C24.18248259 75.12435006 24.17792011 73.12369892 24.17382812 71.12304688 C24.16282381 66.22783506 24.14557198 61.33268058 24.125 56.4375 C20.51268623 56.4375 17.19965052 58.35279432 13.8984375 59.7265625 Z " fill="#000000" transform="translate(3620.875,5333.5625)"/>
<path d="M0 0 C0.97702881 0.00161133 1.95405762 0.00322266 2.96069336 0.00488281 C11.45196973 0.14941518 17.85620077 1.70051351 25.125 6.125 C32.67392847 14.11798308 34.55004124 22.83769575 34.53710938 33.54150391 C34.54394241 34.42060928 34.55077545 35.29971466 34.55781555 36.20545959 C34.5713296 38.10037334 34.58043013 39.99532278 34.58552551 41.89027786 C34.59386213 44.89193466 34.61440889 47.89329413 34.63806152 50.89486694 C34.69427754 58.34490663 34.72967462 65.79501848 34.76568604 73.24517822 C34.7969646 79.55310084 34.83617259 85.86087745 34.88594055 92.1686821 C34.90595906 95.12115204 34.91431666 98.07350796 34.92224121 101.02603149 C34.93521582 102.83978692 34.94873646 104.65353855 34.96289062 106.46728516 C34.96190872 107.28406235 34.96092682 108.10083954 34.95991516 108.94236755 C35.00871785 113.43955154 35.38623457 117.19272708 37.25 121.375 C39.39364195 122.51914592 39.39364195 122.51914592 41.875 122.75 C44.040625 123.059375 44.040625 123.059375 46.25 123.375 C46.25 126.675 46.25 129.975 46.25 133.375 C38.85125494 133.71648054 33.82197973 133.36773977 27.9375 128.4375 C26.33234375 126.47564236 25.33677836 124.64821761 24.25 122.375 C23.54037109 123.06335937 23.54037109 123.06335937 22.81640625 123.765625 C13.18992304 132.69780046 2.17072489 135.90655798 -10.87890625 135.62890625 C-20.49816256 134.77822372 -28.26257971 132.27090007 -34.9375 125.125 C-42.25023569 116.16594162 -42.45040453 104.46473842 -41.75 93.375 C-40.20633231 83.55047087 -35.86758483 73.8804074 -27.77856445 67.76000977 C-18.07419487 61.1343161 -6.17845677 57.2405046 4.61938477 52.73535156 C6.96645963 51.75445611 9.30958537 50.76458936 11.65234375 49.7734375 C12.37107162 49.47649994 13.0897995 49.17956238 13.83030701 48.87362671 C18.15056879 47.0378288 21.12727045 45.6204591 23.25 41.375 C23.8589927 31.79507631 24.12914858 23.50916724 18.125 15.5625 C10.73770629 9.94173305 2.28917869 9.4206207 -6.75 10.375 C-13.50362791 11.85003687 -17.79620968 14.4929513 -21.6328125 20.26953125 C-23.22386247 23.26804851 -24.05837276 26.05518926 -24.75 29.375 C-28.38 29.375 -32.01 29.375 -35.75 29.375 C-33.78013713 19.16281618 -31.05570181 11.11880963 -22.3125 4.9375 C-15.32090469 0.41807099 -8.08482508 -0.01376023 0 0 Z M18.47802734 57.82446289 C17.31574112 58.3011013 17.31574112 58.3011013 16.12997437 58.78736877 C14.87067612 59.31221107 14.87067612 59.31221107 13.5859375 59.84765625 C12.71989899 60.2083873 11.85386047 60.56911835 10.96157837 60.94078064 C9.12302811 61.7095104 7.28543781 62.48053944 5.44873047 63.25366211 C3.5798361 64.03718872 1.70810749 64.81399207 -0.16650391 65.58374023 C-2.88060706 66.69824676 -5.58538054 67.83313699 -8.2890625 68.97265625 C-9.11644928 69.3083815 -9.94383606 69.64410675 -10.79629517 69.99000549 C-19.28438756 73.62387481 -25.93265007 78.85937323 -29.75 87.375 C-32.91578939 96.16309295 -32.53666991 107.06142223 -28.828125 115.66015625 C-25.76389862 120.53405256 -21.17713376 123.66198791 -15.75 125.375 C-4.22006779 126.50822762 4.91752027 125.16809522 14.0625 117.75 C20.10352205 112.02974018 23.98685281 104.7049651 24.33596802 96.30705261 C24.3656481 93.77049055 24.36231939 91.23591279 24.34765625 88.69921875 C24.34553383 87.31148003 24.34553383 87.31148003 24.34336853 85.89570618 C24.33778715 82.95127073 24.32523805 80.00691233 24.3125 77.0625 C24.30748259 75.06185006 24.30292011 73.06119892 24.29882812 71.06054688 C24.28782381 66.16533506 24.27057198 61.27018058 24.25 56.375 C21.94181619 56.375 20.61046808 56.94622402 18.47802734 57.82446289 Z " fill="#000000" transform="translate(5143.75,5333.625)"/>
<path d="M0 0 C13.66725065 11.85186632 17.8496832 27.78291098 19.80859375 45.22265625 C19.92490006 47.07504695 20.00325017 48.92994317 20.05859375 50.78515625 C20.07905762 51.45595215 20.09952148 52.12674805 20.12060547 52.81787109 C20.70512372 75.17931743 19.33889716 100.80743345 3.30859375 118.16015625 C-5.4557486 126.30682114 -16.28883043 129.29855431 -28.04296875 129.03515625 C-36.63113087 128.29439833 -44.05951057 126.00947706 -50.94140625 120.78515625 C-51.76769531 120.17542969 -52.59398438 119.56570313 -53.4453125 118.9375 C-65.29522532 108.71950005 -69.90250576 90.63792743 -71.11645508 75.61953735 C-71.34398482 71.24708742 -71.37014795 66.88085728 -71.33251953 62.50341797 C-71.3164088 60.28550791 -71.33249783 58.06941883 -71.3515625 55.8515625 C-71.3797615 37.02242515 -68.36892807 17.71812615 -54.91015625 3.6640625 C-40.82694954 -9.84887351 -15.92737027 -11.89438477 0 0 Z M-42.94140625 6.78515625 C-43.55113281 7.15125 -44.16085938 7.51734375 -44.7890625 7.89453125 C-54.0883558 14.5164456 -58.01894751 28.12290431 -59.94140625 38.78515625 C-60.12445312 39.78933594 -60.3075 40.79351562 -60.49609375 41.828125 C-62.89101603 63.10932034 -62.78926913 89.75937009 -49.56640625 107.78515625 C-44.00329367 114.36193794 -38.15259464 118.23508636 -29.42578125 119.15625 C-19.00678952 119.34152496 -12.0388572 117.68300405 -4.19140625 110.72265625 C9.56850523 95.57056549 10.75335938 71.64829749 9.83984375 52.22265625 C8.81619581 36.06483128 6.05927383 19.97016651 -6.31640625 8.41015625 C-16.29941226 0.64799175 -32.26210591 -0.23076664 -42.94140625 6.78515625 Z " fill="#000000" transform="translate(2879.94140625,5340.21484375)"/>
<path d="M0 0 C3.63 0 7.26 0 11 0 C11.00364563 1.36032349 11.00729126 2.72064697 11.01104736 4.12219238 C11.04801508 16.9523222 11.10580767 29.7822124 11.18390274 42.61215973 C11.22338377 49.20792119 11.25556944 55.803549 11.27099609 62.39941406 C11.28615816 68.76677348 11.32059677 75.13376551 11.36830902 81.5009613 C11.38312727 83.92814437 11.39104126 86.35537988 11.39188385 88.78260803 C11.39425379 92.18684902 11.42133794 95.59007497 11.45410156 98.99414062 C11.4490712 99.99395966 11.44404083 100.99377869 11.43885803 102.02389526 C11.53009807 108.16580625 12.4652845 112.88317489 16 118 C21.68450125 123.4072085 26.79860361 123.3589201 34.36328125 123.265625 C44.51282213 122.52430515 51.21100187 117.29636098 58 110 C64.28188225 102.12510454 66.44936253 93.35318633 66.43237305 83.44116211 C66.4425647 82.53276581 66.45275635 81.62436951 66.46325684 80.68844604 C66.49319175 77.71801428 66.5026228 74.74790602 66.51171875 71.77734375 C66.52857991 69.70511317 66.54673207 67.63289272 66.56611633 65.5606842 C66.61346632 60.13073902 66.64337262 54.70083496 66.66955566 49.27075195 C66.69943705 43.72013227 66.74594127 38.16965405 66.79101562 32.61914062 C66.87687801 21.74616798 66.94429902 10.87316609 67 0 C70.63 0 74.26 0 78 0 C78 43.56 78 87.12 78 132 C74.37 132 70.74 132 67 132 C66.505 124.575 66.505 124.575 66 117 C64.576875 118.794375 64.576875 118.794375 63.125 120.625 C55.98023428 128.79872793 46.69768895 132.9302311 36 134 C25.83724857 134.55709435 17.16776184 133.45199568 9 127 C1.24254026 119.24254026 -0.10839338 110.05576574 -0.12442017 99.46311951 C-0.12082489 98.48416214 -0.11722961 97.50520477 -0.11352539 96.49658203 C-0.11367142 95.45207382 -0.11381744 94.40756561 -0.1139679 93.33140564 C-0.11327305 89.89018656 -0.10550066 86.44902208 -0.09765625 83.0078125 C-0.09579055 80.61742177 -0.09436736 78.22703065 -0.09336853 75.8366394 C-0.08955532 69.55337463 -0.07973522 63.27013306 -0.06866455 56.98687744 C-0.05842473 50.57198399 -0.0538654 44.15708677 -0.04882812 37.7421875 C-0.03811189 25.16144815 -0.02104982 12.58072601 0 0 Z " fill="#000000" transform="translate(2240,5335)"/>
<path d="M0 0 C6.26803883 4.93739372 10.08458373 11.73762027 11.72265625 19.52734375 C11.80888281 21.06514312 11.84468521 22.60620946 11.84291077 24.14642334 C11.84497276 25.53038551 11.84497276 25.53038551 11.84707642 26.94230652 C11.8416835 28.44958061 11.8416835 28.44958061 11.83618164 29.98730469 C11.83632767 31.05102798 11.83647369 32.11475128 11.83662415 33.21070862 C11.83592731 36.72773272 11.82814558 40.2447039 11.8203125 43.76171875 C11.81844751 46.19980846 11.81702399 48.63789855 11.81602478 51.07598877 C11.81220601 57.49409011 11.80238115 63.91216883 11.7913208 70.33026123 C11.78109295 76.87902521 11.77652421 83.42779284 11.77148438 89.9765625 C11.76075834 102.82683286 11.74368956 115.67708642 11.72265625 128.52734375 C8.42265625 128.52734375 5.12265625 128.52734375 1.72265625 128.52734375 C1.71718781 126.59081184 1.71718781 126.59081184 1.71160889 124.61515808 C1.67458744 112.41875062 1.61673641 100.22259398 1.53875351 88.02637768 C1.49932876 81.75691402 1.46711556 75.48758978 1.45166016 69.21801758 C1.43646092 63.16186159 1.40195664 57.106089 1.35434723 51.05010414 C1.33956723 48.74541885 1.33161719 46.44067881 1.3307724 44.13594627 C1.32839088 40.8951519 1.30121471 37.65540695 1.26855469 34.41479492 C1.27358505 33.47251541 1.27861542 32.5302359 1.28379822 31.55940247 C1.16991716 24.20399696 -0.08411311 16.28761036 -4.98566055 10.51567364 C-10.1511996 5.70919791 -15.74180438 4.01896131 -22.72265625 4.21875 C-31.82482125 5.318247 -39.90386972 8.90920661 -46.27734375 15.52734375 C-53.36453303 24.65918023 -56.72943102 33.58448912 -56.7097168 45.08618164 C-56.71990845 45.99457794 -56.7301001 46.90297424 -56.74060059 47.83889771 C-56.7705355 50.80932947 -56.77996655 53.77943773 -56.7890625 56.75 C-56.80592366 58.82223058 -56.82407582 60.89445103 -56.84346008 62.96665955 C-56.89081007 68.39660473 -56.92071637 73.82650879 -56.94689941 79.2565918 C-56.9767808 84.80721148 -57.02328502 90.3576897 -57.06835938 95.90820312 C-57.15422176 106.78117577 -57.22164277 117.65417766 -57.27734375 128.52734375 C-60.57734375 128.52734375 -63.87734375 128.52734375 -67.27734375 128.52734375 C-67.27734375 84.96734375 -67.27734375 41.40734375 -67.27734375 -3.47265625 C-63.97734375 -3.47265625 -60.67734375 -3.47265625 -57.27734375 -3.47265625 C-56.94734375 1.47734375 -56.61734375 6.42734375 -56.27734375 11.52734375 C-55.07078125 9.98046875 -55.07078125 9.98046875 -53.83984375 8.40234375 C-40.83823061 -6.56462951 -16.88312297 -10.91755979 0 0 Z " fill="#000000" transform="translate(5892.27734375,5338.47265625)"/>
<path d="M0 0 C6.26803883 4.93739372 10.08458373 11.73762027 11.72265625 19.52734375 C11.80888281 21.06514312 11.84468521 22.60620946 11.84291077 24.14642334 C11.84497276 25.53038551 11.84497276 25.53038551 11.84707642 26.94230652 C11.8416835 28.44958061 11.8416835 28.44958061 11.83618164 29.98730469 C11.83632767 31.05102798 11.83647369 32.11475128 11.83662415 33.21070862 C11.83592731 36.72773272 11.82814558 40.2447039 11.8203125 43.76171875 C11.81844751 46.19980846 11.81702399 48.63789855 11.81602478 51.07598877 C11.81220601 57.49409011 11.80238115 63.91216883 11.7913208 70.33026123 C11.78109295 76.87902521 11.77652421 83.42779284 11.77148438 89.9765625 C11.76075834 102.82683286 11.74368956 115.67708642 11.72265625 128.52734375 C8.42265625 128.52734375 5.12265625 128.52734375 1.72265625 128.52734375 C1.71718781 126.59081184 1.71718781 126.59081184 1.71160889 124.61515808 C1.67458744 112.41875062 1.61673641 100.22259398 1.53875351 88.02637768 C1.49932876 81.75691402 1.46711556 75.48758978 1.45166016 69.21801758 C1.43646092 63.16186159 1.40195664 57.106089 1.35434723 51.05010414 C1.33956723 48.74541885 1.33161719 46.44067881 1.3307724 44.13594627 C1.32839088 40.8951519 1.30121471 37.65540695 1.26855469 34.41479492 C1.27358505 33.47251541 1.27861542 32.5302359 1.28379822 31.55940247 C1.16991716 24.20399696 -0.08411311 16.28761036 -4.98566055 10.51567364 C-10.1511996 5.70919791 -15.74180438 4.01896131 -22.72265625 4.21875 C-31.82482125 5.318247 -39.90386972 8.90920661 -46.27734375 15.52734375 C-53.36453303 24.65918023 -56.72943102 33.58448912 -56.7097168 45.08618164 C-56.71990845 45.99457794 -56.7301001 46.90297424 -56.74060059 47.83889771 C-56.7705355 50.80932947 -56.77996655 53.77943773 -56.7890625 56.75 C-56.80592366 58.82223058 -56.82407582 60.89445103 -56.84346008 62.96665955 C-56.89081007 68.39660473 -56.92071637 73.82650879 -56.94689941 79.2565918 C-56.9767808 84.80721148 -57.02328502 90.3576897 -57.06835938 95.90820312 C-57.15422176 106.78117577 -57.22164277 117.65417766 -57.27734375 128.52734375 C-60.57734375 128.52734375 -63.87734375 128.52734375 -67.27734375 128.52734375 C-67.27734375 84.96734375 -67.27734375 41.40734375 -67.27734375 -3.47265625 C-63.97734375 -3.47265625 -60.67734375 -3.47265625 -57.27734375 -3.47265625 C-56.94734375 1.47734375 -56.61734375 6.42734375 -56.27734375 11.52734375 C-55.07078125 9.98046875 -55.07078125 9.98046875 -53.83984375 8.40234375 C-40.83823061 -6.56462951 -16.88312297 -10.91755979 0 0 Z " fill="#000000" transform="translate(5529.27734375,5338.47265625)"/>
<path d="M0 0 C6.93102966 5.81489963 9.77533894 11.8389005 11.96484375 20.6484375 C11.96484375 21.6384375 11.96484375 22.6284375 11.96484375 23.6484375 C8.33484375 23.6484375 4.70484375 23.6484375 0.96484375 23.6484375 C0.40796875 21.9365625 -0.14890625 20.2246875 -0.72265625 18.4609375 C-3.06416079 12.1193627 -5.87504522 8.63831168 -11.78515625 5.3359375 C-19.86363576 2.01508602 -31.17826888 2.03612341 -39.28515625 5.2734375 C-44.8405962 8.31442301 -48.00815271 12.66479385 -50.03515625 18.6484375 C-50.94756209 25.74610615 -50.36162265 31.83008613 -46.03515625 37.6484375 C-38.77829486 46.28028316 -27.11377157 50.33231485 -17.08984375 54.91015625 C-4.05828628 60.89158395 7.42460773 67.04536174 14.83984375 79.8984375 C17.99508083 90.41589444 17.80661013 101.48168436 12.83984375 111.3984375 C7.62673282 119.91928255 -0.07980704 124.79013809 -9.59375 127.33203125 C-23.45176243 130.24844896 -39.75856388 129.83999891 -52.07421875 122.1484375 C-59.4229055 116.5271313 -63.760389 109.32476088 -65.49609375 100.234375 C-65.73859981 98.37953139 -65.89696971 96.51395579 -66.03515625 94.6484375 C-62.40515625 94.6484375 -58.77515625 94.6484375 -55.03515625 94.6484375 C-54.78765625 96.0096875 -54.54015625 97.3709375 -54.28515625 98.7734375 C-52.86148529 105.0810908 -49.92690521 109.54147945 -44.78100586 113.55908203 C-38.63279548 117.39537272 -31.75413293 118.17885901 -24.66015625 118.0859375 C-23.83161133 118.07691406 -23.00306641 118.06789062 -22.14941406 118.05859375 C-14.54118124 117.84436115 -7.84438487 116.90952575 -1.890625 111.8125 C4.35123498 105.1765511 5.45214728 98.70757116 5.26953125 89.76953125 C4.59235167 82.83278146 0.77495179 78.7872329 -4.46875 74.4609375 C-13.45398534 68.11520052 -23.68912139 63.86697565 -33.73461914 59.5168457 C-39.26500938 57.08559389 -44.21999284 54.32139936 -49.03515625 50.6484375 C-50.36546875 49.7821875 -50.36546875 49.7821875 -51.72265625 48.8984375 C-58.54910542 42.25648695 -61.30341237 34.53943081 -61.47265625 25.2109375 C-61.5405389 15.91566451 -59.49668766 8.98924883 -53.4296875 1.7265625 C-39.97521604 -11.18461676 -14.42154778 -10.69228678 0 0 Z " fill="#000000" transform="translate(1936.03515625,5340.3515625)"/>
<path d="M0 0 C7.2737803 6.36977319 11.18580927 14.43325898 12 24 C8.37 24 4.74 24 1 24 C0.443125 22.288125 -0.11375 20.57625 -0.6875 18.8125 C-3.02900454 12.4709252 -5.83988897 8.98987418 -11.75 5.6875 C-19.55242097 2.46162511 -30.70266733 2.59614242 -38.6875 5.0625 C-44.40385351 8.40602753 -47.93159992 12.69184771 -50 19 C-50.90285906 25.80470617 -50.66862173 32.03413252 -46.75952148 37.84082031 C-40.12856232 45.97793739 -29.36587721 49.85588841 -20 54 C9.84805145 67.20684153 9.84805145 67.20684153 15.33984375 81.01953125 C17.60629799 91.25210275 17.73352762 103.94616086 12 113 C6.80770928 120.99815256 -0.72009039 125.15244526 -9.76171875 127.8125 C-23.08606525 130.61353051 -39.19753688 130.09203024 -51.265625 123.20703125 C-58.96618197 117.84785984 -63.72014814 110.56990622 -65.52734375 101.29296875 C-65.76758855 99.20316808 -65.89667088 97.10102534 -66 95 C-62.7 95 -59.4 95 -56 95 C-55.38125 97.0109375 -55.38125 97.0109375 -54.75 99.0625 C-52.32779576 106.17284149 -49.89400652 110.96918782 -43.29296875 114.95703125 C-37.08019011 117.7829459 -31.32968994 118.33927592 -24.625 118.3125 C-23.82578125 118.32861328 -23.0265625 118.34472656 -22.203125 118.36132812 C-14.01664335 118.36795149 -6.56254664 116.53638157 -0.5078125 110.77734375 C4.71696193 104.61860706 5.72256677 98.01540971 5.4453125 90.0859375 C4.77214894 85.42103215 3.12050815 82.47347051 0 79 C-0.44988281 78.49339844 -0.89976563 77.98679688 -1.36328125 77.46484375 C-9.65749641 69.42781356 -21.8694438 64.97087261 -32.34692383 60.50854492 C-44.59190386 55.23045809 -53.73780561 49.03483613 -60 37 C-62.46439973 29.60680081 -62.42318047 18.08512976 -59.375 10.8125 C-58.25 8.81640625 -58.25 8.81640625 -57 7 C-56.5875 6.36964844 -56.175 5.73929688 -55.75 5.08984375 C-50.6477443 -1.73732226 -42.64235105 -5.19817573 -34.41015625 -6.72265625 C-22.26753064 -8.1199438 -10.36029628 -6.86043149 0 0 Z " fill="#000000" transform="translate(4325,5340)"/>
<path d="M0 0 C3.3 0 6.6 0 10 0 C10 11.88 10 23.76 10 36 C17.59 36 25.18 36 33 36 C33 39.3 33 42.6 33 46 C25.41 46 17.82 46 10 46 C10.06293966 59.30878309 10.1383685 72.61733512 10.23571491 85.9259119 C10.28042015 92.1057867 10.31967619 98.28559554 10.34643555 104.46557617 C10.37246661 110.43089195 10.41286825 116.39595397 10.46318626 122.36111259 C10.47985619 124.63561278 10.49136967 126.91015685 10.49761391 129.18470955 C10.50725332 132.37349096 10.5353119 135.56162294 10.56762695 138.75024414 C10.56547432 140.15718285 10.56547432 140.15718285 10.5632782 141.59254456 C10.64252617 147.13111878 11.32574668 151.11014472 14 156 C17.171738 157.585869 20.63513822 157.37866445 24.125 157.5625 C24.87910156 157.60568359 25.63320313 157.64886719 26.41015625 157.69335938 C28.27321888 157.7994832 30.13658524 157.90025001 32 158 C32 161.3 32 164.6 32 168 C12.37178888 168.4287716 12.37178888 168.4287716 5.1875 164.4375 C-0.37882632 158.2350221 -0.42905224 150.09791002 -0.34057617 142.15600586 C-0.34101425 141.11105957 -0.34145233 140.06611328 -0.34190369 138.98950195 C-0.33982766 135.56442023 -0.31655237 132.13983908 -0.29296875 128.71484375 C-0.28736859 126.32874316 -0.28310048 123.9426391 -0.28010559 121.55653381 C-0.26868999 115.29788573 -0.23925096 109.03944884 -0.20599365 102.78088379 C-0.17522194 96.38585262 -0.16158509 89.9907871 -0.14648438 83.59570312 C-0.1143782 71.06370965 -0.06322157 58.53187244 0 46 C-6.27 46 -12.54 46 -19 46 C-19 42.7 -19 39.4 -19 36 C-12.73 36 -6.46 36 0 36 C0 24.12 0 12.24 0 0 Z " fill="#000000" transform="translate(4786,5299)"/>
<path d="M0 0 C3.3 0 6.6 0 10 0 C10 11.88 10 23.76 10 36 C17.59 36 25.18 36 33 36 C33 39.3 33 42.6 33 46 C25.41 46 17.82 46 10 46 C10.08547042 59.60404253 10.17920459 73.20795896 10.28752708 86.8118391 C10.3374932 93.12852465 10.3838234 99.44519344 10.421875 105.76196289 C10.45872354 111.85689617 10.50508267 117.95168942 10.55806351 124.04650307 C10.57660968 126.37290302 10.5917168 128.69933299 10.60334396 131.02577782 C10.6202023 134.28189843 10.64923702 137.5376982 10.68115234 140.79370117 C10.68331253 141.75755234 10.68547272 142.7214035 10.68769836 143.71446228 C10.73110436 150.09902074 10.73110436 150.09902074 13 156 C16.29960141 157.6498007 19.99127884 157.38258361 23.625 157.5625 C24.82769531 157.62727539 24.82769531 157.62727539 26.0546875 157.69335938 C28.0362511 157.79951457 30.01810271 157.90026855 32 158 C32 161.3 32 164.6 32 168 C12.13667473 168.61574028 12.13667473 168.61574028 6 165 C1.58420818 160.69743361 -0.0919448 156.35101961 -0.24050903 150.26066589 C-0.24629536 148.31595192 -0.24101653 146.37118611 -0.22705078 144.42651367 C-0.22734283 143.36264435 -0.22763489 142.29877502 -0.22793579 141.20266724 C-0.22654398 137.69101772 -0.21098951 134.17958114 -0.1953125 130.66796875 C-0.19158185 128.23130916 -0.18873512 125.79464807 -0.18673706 123.35798645 C-0.17910474 116.94808808 -0.15945958 110.5382805 -0.1373291 104.12841797 C-0.11686211 97.58627551 -0.10773351 91.04411837 -0.09765625 84.50195312 C-0.07621341 71.66792889 -0.04208219 58.833972 0 46 C-6.27 46 -12.54 46 -19 46 C-19 42.7 -19 39.4 -19 36 C-12.73 36 -6.46 36 0 36 C0 24.12 0 12.24 0 0 Z " fill="#000000" transform="translate(3968,5299)"/>
<path d="M0 0 C3.3 0 6.6 0 10 0 C10 11.88 10 23.76 10 36 C17.26 36 24.52 36 32 36 C32 39.3 32 42.6 32 46 C24.74 46 17.48 46 10 46 C10.08543584 59.75169644 10.17915181 73.50326753 10.28752708 87.2548027 C10.33751498 93.63989837 10.38384492 100.02497728 10.421875 106.41015625 C10.45869611 112.56992297 10.50504763 118.72955042 10.55806351 124.8891983 C10.5766243 127.24154472 10.59172599 129.593921 10.60334396 131.94631195 C10.62017736 135.23616356 10.64920587 138.52569502 10.68115234 141.81542969 C10.68331253 142.79222687 10.68547272 143.76902405 10.68769836 144.77542114 C10.69886185 145.67282013 10.71002533 146.57021912 10.7215271 147.49481201 C10.72705786 148.27280529 10.73258862 149.05079857 10.73828697 149.8523674 C11.03679038 152.30190406 11.70019414 153.91001512 13 156 C16.29960141 157.6498007 19.99127884 157.38258361 23.625 157.5625 C24.82769531 157.62727539 24.82769531 157.62727539 26.0546875 157.69335938 C28.0362511 157.79951457 30.01810271 157.90026855 32 158 C32 161.3 32 164.6 32 168 C10.13985632 168.67763936 10.13985632 168.67763936 4.390625 163.5703125 C0.97233198 159.71032994 -0.12599557 156.4981125 -0.12025452 151.46321106 C-0.12162918 150.53353012 -0.12300385 149.60384918 -0.12442017 148.64599609 C-0.12082489 147.62820068 -0.11722961 146.61040527 -0.11352539 145.56176758 C-0.11367142 144.48843674 -0.11381744 143.4151059 -0.1139679 142.30924988 C-0.1132701 138.75432325 -0.10548386 135.19944874 -0.09765625 131.64453125 C-0.0957916 129.18259205 -0.09436792 126.72065247 -0.09336853 124.25871277 C-0.08954706 117.77319314 -0.07971991 111.28769585 -0.06866455 104.80218506 C-0.05844249 98.18648582 -0.0538692 91.57078298 -0.04882812 84.95507812 C-0.03809734 71.97004226 -0.02102533 58.98502299 0 46 C-6.27 46 -12.54 46 -19 46 C-19 42.7 -19 39.4 -19 36 C-12.73 36 -6.46 36 0 36 C0 24.12 0 12.24 0 0 Z " fill="#000000" transform="translate(4475,5299)"/>
<path d="M0 0 C3.3 0 6.6 0 10 0 C10 11.88 10 23.76 10 36 C17.26 36 24.52 36 32 36 C32 39.3 32 42.6 32 46 C24.74 46 17.48 46 10 46 C10.08547042 59.60404253 10.17920459 73.20795896 10.28752708 86.8118391 C10.3374932 93.12852465 10.3838234 99.44519344 10.421875 105.76196289 C10.45872354 111.85689617 10.50508267 117.95168942 10.55806351 124.04650307 C10.57660968 126.37290302 10.5917168 128.69933299 10.60334396 131.02577782 C10.6202023 134.28189843 10.64923702 137.5376982 10.68115234 140.79370117 C10.68331253 141.75755234 10.68547272 142.7214035 10.68769836 143.71446228 C10.73110436 150.09902074 10.73110436 150.09902074 13 156 C16.29960141 157.6498007 19.99127884 157.38258361 23.625 157.5625 C24.82769531 157.62727539 24.82769531 157.62727539 26.0546875 157.69335938 C28.0362511 157.79951457 30.01810271 157.90026855 32 158 C32 161.3 32 164.6 32 168 C10.24061775 168.67451587 10.24061775 168.67451587 4.390625 163.60546875 C0.61646075 159.41784268 -0.12652846 155.82670541 -0.12025452 150.38092041 C-0.12162918 149.45827896 -0.12300385 148.53563751 -0.12442017 147.58503723 C-0.12082489 146.58018784 -0.11722961 145.57533844 -0.11352539 144.54003906 C-0.11367142 143.47631577 -0.11381744 142.41259247 -0.1139679 141.31663513 C-0.11327106 137.79961103 -0.10548933 134.28263985 -0.09765625 130.765625 C-0.09579126 128.32753529 -0.09436774 125.8894452 -0.09336853 123.45135498 C-0.08954976 117.03325364 -0.0797249 110.61517492 -0.06866455 104.19708252 C-0.0584367 97.64831854 -0.05386796 91.09955091 -0.04882812 84.55078125 C-0.03810209 71.70051089 -0.02103331 58.85025733 0 46 C-6.27 46 -12.54 46 -19 46 C-19 42.7 -19 39.4 -19 36 C-12.73 36 -6.46 36 0 36 C0 24.12 0 12.24 0 0 Z " fill="#000000" transform="translate(2086,5299)"/>
<path d="M0 0 C0 3.3 0 6.6 0 10 C-1.18335937 10.21914063 -2.36671875 10.43828125 -3.5859375 10.6640625 C-15.10963831 12.92320528 -25.1914999 15.46221597 -32.7578125 25.14453125 C-38.06459779 33.07133318 -40.2947045 40.74013088 -40.31884766 50.21826172 C-40.32889328 51.12621994 -40.3389389 52.03417816 -40.34928894 52.96965027 C-40.38006052 55.95632319 -40.39713938 58.94290672 -40.4140625 61.9296875 C-40.43277898 64.00620286 -40.45235276 66.08271065 -40.4727478 68.15921021 C-40.52402416 73.61384618 -40.56367403 79.06850679 -40.60089111 84.52325439 C-40.64095889 90.09368972 -40.6920386 95.66402292 -40.7421875 101.234375 C-40.83889359 112.15617821 -40.92331546 123.07803915 -41 134 C-44.63 134 -48.26 134 -52 134 C-52 90.44 -52 46.88 -52 2 C-48.37 2 -44.74 2 -41 2 C-40.67 6.62 -40.34 11.24 -40 16 C-38.1128125 14.1746875 -38.1128125 14.1746875 -36.1875 12.3125 C-26.25237593 3.50034129 -13.15362534 0 0 0 Z " fill="#000000" transform="translate(3843,5333)"/>
<path d="M0 0 C0 3.3 0 6.6 0 10 C-0.94359375 10.14695313 -1.8871875 10.29390625 -2.859375 10.4453125 C-14.78781636 12.52919683 -25.37415172 15.64687045 -33.3125 25.4375 C-39.57826652 34.95218249 -41.12393847 44.63356146 -41.20532227 55.78100586 C-41.22017166 57.0553801 -41.22017166 57.0553801 -41.23532104 58.35549927 C-41.26671224 61.14191984 -41.29160424 63.92835741 -41.31640625 66.71484375 C-41.33699514 68.6554049 -41.35799211 70.59596176 -41.37937927 72.53651428 C-41.43440014 77.62782299 -41.48389703 82.71917083 -41.53222656 87.81054688 C-41.58258809 93.01240494 -41.63819746 98.21420664 -41.69335938 103.41601562 C-41.80069627 113.61062886 -41.90219493 123.80529117 -42 134 C-45.3 134 -48.6 134 -52 134 C-52 90.44 -52 46.88 -52 2 C-48.7 2 -45.4 2 -42 2 C-41.67 6.95 -41.34 11.9 -41 17 C-39.88625 15.783125 -38.7725 14.56625 -37.625 13.3125 C-27.79712789 3.53644444 -13.61307744 0 0 0 Z " fill="#000000" transform="translate(4993,5333)"/>
<path d="M0 0 C3.3 0 6.6 0 10 0 C10 43.56 10 87.12 10 132 C6.7 132 3.4 132 0 132 C0 88.44 0 44.88 0 0 Z " fill="#000000" transform="translate(5678,5335)"/>
<path d="M0 0 C3.3 0 6.6 0 10 0 C10 43.56 10 87.12 10 132 C6.7 132 3.4 132 0 132 C0 88.44 0 44.88 0 0 Z " fill="#000000" transform="translate(5315,5335)"/>
<path d="M0 0 C3.3 0 6.6 0 10 0 C10 43.56 10 87.12 10 132 C6.7 132 3.4 132 0 132 C0 88.44 0 44.88 0 0 Z " fill="#000000" transform="translate(4123,5335)"/>
<path d="M0 0 C3.3 0 6.6 0 10 0 C10 43.56 10 87.12 10 132 C6.7 132 3.4 132 0 132 C0 88.44 0 44.88 0 0 Z " fill="#000000" transform="translate(2668,5335)"/>
<path d="M0 0 C3.63 0 7.26 0 11 0 C11 6.6 11 13.2 11 20 C7.37 20 3.74 20 0 20 C0 13.4 0 6.8 0 0 Z " fill="#000000" transform="translate(5677,5289)"/>
<path d="M0 0 C3.63 0 7.26 0 11 0 C11 6.6 11 13.2 11 20 C7.37 20 3.74 20 0 20 C0 13.4 0 6.8 0 0 Z " fill="#000000" transform="translate(5314,5289)"/>
<path d="M0 0 C3.63 0 7.26 0 11 0 C11 6.6 11 13.2 11 20 C7.37 20 3.74 20 0 20 C0 13.4 0 6.8 0 0 Z " fill="#000000" transform="translate(4123,5289)"/>
<path d="M0 0 C3.63 0 7.26 0 11 0 C11 6.6 11 13.2 11 20 C7.37 20 3.74 20 0 20 C0 13.4 0 6.8 0 0 Z " fill="#000000" transform="translate(2668,5289)"/>
</svg>
